SplineFontDB: 3.0
FontName: Monda-Light
FullName: Monda Light
FamilyName: Monda
Weight: Light
Copyright: Digitized data Copyright (c) 2011-2013, vernon adams.
Version: 2.0
ItalicAngle: 0
UnderlinePosition: 0
UnderlineWidth: 0
Ascent: 1638
Descent: 410
UFOAscent: 2030
UFODescent: -675
LayerCount: 2
Layer: 0 0 "Back"  1
Layer: 1 0 "Fore"  0
OS2Version: 0
OS2_WeightWidthSlopeOnly: 0
OS2_UseTypoMetrics: 0
CreationTime: 1391998777
ModificationTime: 1391998786
PfmFamily: 0
TTFWeight: 300
TTFWidth: 5
LineGap: 0
VLineGap: 0
OS2TypoAscent: 1999
OS2TypoAOffset: 0
OS2TypoDescent: 572
OS2TypoDOffset: 0
OS2TypoLinegap: 0
OS2WinAscent: 1999
OS2WinAOffset: 0
OS2WinDescent: -572
OS2WinDOffset: 0
HheadAscent: 0
HheadAOffset: 1
HheadDescent: 0
HheadDOffset: 1
OS2Vendor: 'NeWT'
Lookup: 4 0 1 "ligaStandardLigatureslookup0"  {"ligaStandardLigatureslookup0 subtable"  } ['liga' ('latn' <'dflt' > 'grek' <'dflt' > 'DFLT' <'dflt' > ) ]
Lookup: 6 0 0 "loclLocalizedFormsinLatinlookup"  {"loclLocalizedFormsinLatinlookup contextual 0"  "loclLocalizedFormsinLatinlookup contextual 1"  } ['locl' ('latn' <'dflt' 'CAT ' > ) ]
Lookup: 4 0 0 "Ligature Substitution lookup 2"  {"Ligature Substitution lookup 2 subtable"  } []
Lookup: 4 0 0 "Ligature Substitution lookup 3"  {"Ligature Substitution lookup 3 subtable"  } []
Lookup: 1 0 0 "sub_single_locllatn_0"  {"sub_single_locllatn_0 subtable"  } ['locl' ('latn' <'dflt' 'ROM ' > ) ]
Lookup: 1 0 0 "sub_single_locllatn_2"  {"sub_single_locllatn_2 subtable"  } ['locl' ('latn' <'dflt' 'MOL ' > ) ]
Lookup: 1 0 0 "sub_single_locllatn_4"  {"sub_single_locllatn_4 subtable"  } ['locl' ('latn' <'dflt' 'KAZ ' > ) ]
Lookup: 1 0 0 "sub_single_locllatn_6"  {"sub_single_locllatn_6 subtable"  } ['locl' ('latn' <'dflt' 'TAT ' > ) ]
Lookup: 1 0 0 "sub_single_locllatn_8"  {"sub_single_locllatn_8 subtable"  } ['locl' ('latn' <'dflt' 'TRK ' > ) ]
Lookup: 1 0 0 "sub_single_locllatn_10"  {"sub_single_locllatn_10 subtable"  } ['locl' ('latn' <'dflt' 'CRT ' > ) ]

StartChar: A
Encoding: 65 65 0
Width: 1361
VWidth: 0
GlyphClass: 2
Flags: HW
PickledData: "(dp1
S'org.robofab.postScriptHintData'
p2
(dp3
s."
AnchorPoint: "top" 677 1428 basechar 0
AnchorPoint: "ogonek" 1283 0 basechar 0
LayerCount: 2
Fore
SplineSet
87 0 m 257
 237 0 l 257
 344 283 l 257
 1026 283 l 257
 1133 0 l 257
 1274 0 l 257
 735 1428 l 257
 628 1428 l 257
 87 0 l 257
380 393 m 257
 686 1229 l 257
 992 393 l 257
 380 393 l 257
EndSplineSet
EndChar

StartChar: AE
Encoding: 198 198 1
Width: 1597
VWidth: 0
GlyphClass: 2
Flags: HW
PickledData: "(dp1
S'org.robofab.postScriptHintData'
p2
(dp3
s."
AnchorPoint: "top" 970 1428 basechar 0
LayerCount: 2
Fore
SplineSet
107 5 m 257
 247 0 l 257
 317 283 l 257
 863 283 l 257
 863 0 l 257
 1468 0 l 257
 1468 104 l 257
 1000 104 l 257
 1000 675 l 257
 1404 675 l 257
 1404 788 l 257
 1000 788 l 257
 1000 1324 l 257
 1460 1324 l 257
 1460 1427 l 257
 464 1427 l 257
 107 5 l 257
341 381 m 257
 557 1324 l 257
 863 1324 l 257
 863 381 l 257
 341 381 l 257
EndSplineSet
EndChar

StartChar: B
Encoding: 66 66 18
Width: 1377
VWidth: 0
GlyphClass: 2
Flags: HW
PickledData: "(dp1
S'org.robofab.postScriptHintData'
p2
(dp3
s."
AnchorPoint: "top" 664 1428 basechar 0
LayerCount: 2
Fore
SplineSet
222 0 m 257
 746 0 l 258
 1090 0 1243 115 1248 389 c 256
 1248 567 1143 710 996 754 c 257
 1118 805 1169 912 1173 1026 c 257
 1173 1270 1113 1428 719 1428 c 258
 222 1428 l 257
 222 0 l 257
367 114 m 257
 367 692 l 257
 816 692 l 258
 1036 692 1108 543 1108 420 c 256
 1108 165 975 114 755 114 c 258
 367 114 l 257
367 804 m 257
 367 1308 l 257
 681 1308 l 258
 951 1308 1034 1266 1034 1024 c 256
 1034 896 963 804 776 804 c 258
 367 804 l 257
EndSplineSet
EndChar

StartChar: C
Encoding: 67 67 20
Width: 1424
VWidth: 0
GlyphClass: 2
Flags: HW
PickledData: "(dp1
S'org.robofab.postScriptHintData'
p2
(dp3
s."
AnchorPoint: "top" 751 1428 basechar 0
AnchorPoint: "bot" 765 0 basechar 0
LayerCount: 2
Fore
SplineSet
745 -20 m 256
 1174 -20 1255 111 1258 403 c 257
 1258 413 l 257
 1127 413 l 257
 1127 402 l 258
 1127 119 1017 100 751 100 c 256
 474 100 335 167 335 456 c 258
 335 956 l 258
 335 1245 467 1329 742 1329 c 256
 1019 1329 1127 1315 1127 1019 c 258
 1127 1009 l 257
 1258 1016 l 257
 1258 1026 l 258
 1258 1334 1140 1448 742 1448 c 256
 283 1448 190 1229 190 918 c 258
 190 487 l 258
 190 180 288 -20 745 -20 c 256
EndSplineSet
EndChar

StartChar: D
Encoding: 68 68 27
Width: 1497
VWidth: 0
GlyphClass: 2
Flags: HW
PickledData: "(dp1
S'org.robofab.postScriptHintData'
p2
(dp3
s."
AnchorPoint: "top" 678 1428 basechar 0
AnchorPoint: "mid" 346 751 basechar 0
LayerCount: 2
Fore
SplineSet
367 101 m 257
 367 1325 l 257
 742 1325 l 258
 948 1325 1163 1285 1163 954 c 258
 1163 457 l 258
 1163 130 950 101 742 101 c 258
 367 101 l 257
222 0 m 257
 759 0 l 258
 1117 0 1306 143 1306 466 c 258
 1306 958 l 258
 1306 1226 1161 1428 756 1428 c 258
 222 1428 l 257
 222 0 l 257
EndSplineSet
EndChar

StartChar: uni0394
Encoding: 916 916 31
Width: 1433
VWidth: 0
GlyphClass: 2
Flags: HW
PickledData: "(dp1
S'org.robofab.postScriptHintData'
p2
(dp3
s."
LayerCount: 2
Fore
SplineSet
193 0 m 257
 1231 0 l 257
 785 1428 l 257
 632 1428 l 257
 193 0 l 257
400 110 m 257
 738 1229 l 257
 1079 110 l 257
 400 110 l 257
EndSplineSet
EndChar

StartChar: E
Encoding: 69 69 34
Width: 1218
VWidth: 0
GlyphClass: 2
Flags: HW
PickledData: "(dp1
S'org.robofab.postScriptHintData'
p2
(dp3
s."
AnchorPoint: "top" 686 1428 basechar 0
AnchorPoint: "ogonek" 855 0 basechar 0
AnchorPoint: "bot" 669 0 basechar 0
LayerCount: 2
Fore
SplineSet
222 0 m 257
 1099 0 l 257
 1099 106 l 257
 366 106 l 257
 366 684 l 257
 1001 684 l 257
 1001 796 l 257
 366 796 l 257
 366 1322 l 257
 1086 1322 l 257
 1086 1428 l 257
 222 1428 l 257
 222 0 l 257
EndSplineSet
EndChar

StartChar: Eng
Encoding: 330 330 45
Width: 1547
VWidth: 0
GlyphClass: 2
Flags: HW
PickledData: "(dp1
S'org.robofab.postScriptHintData'
p2
(dp3
s."
LayerCount: 2
Fore
SplineSet
773 -368 m 257
 1037 -368 1322 -283 1322 98 c 258
 1322 1427 l 257
 1199 1427 l 257
 1199 416 l 257
 335 1427 l 257
 225 1427 l 257
 225 0 l 257
 348 0 l 257
 348 1169 l 257
 1185 212 l 257
 1185 114 l 258
 1185 -220 996 -233 745 -256 c 257
 773 -368 l 257
EndSplineSet
EndChar

StartChar: Euro
Encoding: 8364 8364 49
Width: 1442
VWidth: 0
GlyphClass: 2
Flags: HW
PickledData: "(dp1
S'org.robofab.postScriptHintData'
p2
(dp3
s."
LayerCount: 2
Fore
SplineSet
716 838 m 257
 716 942 l 257
 -26 942 l 257
 -26 838 l 257
 716 838 l 257
716 516 m 257
 716 620 l 257
 -26 620 l 257
 -26 516 l 257
 716 516 l 257
EndSplineSet
Refer: 20 67 N 1 0 0 1 0 0 2
EndChar

StartChar: F
Encoding: 70 70 50
Width: 1137
VWidth: 0
GlyphClass: 2
Flags: HW
PickledData: "(dp1
S'org.robofab.postScriptHintData'
p2
(dp3
s."
AnchorPoint: "top" 631 1428 basechar 0
LayerCount: 2
Fore
SplineSet
222 0 m 257
 365 0 l 257
 365 682 l 257
 966 682 l 257
 966 794 l 257
 365 794 l 257
 365 1324 l 257
 999 1324 l 257
 999 1428 l 257
 222 1428 l 257
 222 0 l 257
EndSplineSet
EndChar

StartChar: G
Encoding: 71 71 52
Width: 1516
VWidth: 0
GlyphClass: 2
Flags: HW
PickledData: "(dp1
S'org.robofab.postScriptHintData'
p2
(dp3
s."
AnchorPoint: "top" 748 1428 basechar 0
AnchorPoint: "bot" 784 0 basechar 0
LayerCount: 2
Fore
SplineSet
768 -20 m 256
 1034 -20 1197 69 1226 292 c 257
 1238 0 l 257
 1320 0 l 257
 1320 722 l 257
 787 722 l 257
 787 604 l 257
 1157 604 l 257
 1157 456 l 258
 1157 167 1046 100 768 100 c 256
 492 100 341 167 341 456 c 258
 341 956 l 258
 341 1245 494 1329 768 1329 c 256
 1063 1329 1163 1315 1175 1047 c 258
 1176 1024 l 257
 1295 1035 l 257
 1294 1065 l 258
 1286 1302 1198 1448 768 1448 c 256
 310 1448 197 1229 197 918 c 258
 197 487 l 258
 197 180 311 -20 768 -20 c 256
EndSplineSet
EndChar

StartChar: H
Encoding: 72 72 59
Width: 1444
VWidth: 0
GlyphClass: 2
Flags: HW
PickledData: "(dp1
S'org.robofab.postScriptHintData'
p2
(dp3
s."
AnchorPoint: "top" 698 1428 basechar 0
LayerCount: 2
Fore
SplineSet
212 0 m 257
 355 0 l 257
 355 685 l 257
 1089 685 l 257
 1089 0 l 257
 1232 0 l 257
 1232 1428 l 257
 1089 1428 l 257
 1089 782 l 257
 355 782 l 257
 355 1428 l 257
 212 1428 l 257
 212 0 l 257
EndSplineSet
EndChar

StartChar: Hbar
Encoding: 294 294 60
Width: 1444
VWidth: 0
GlyphClass: 2
Flags: HW
PickledData: "(dp1
S'org.robofab.postScriptHintData'
p2
(dp3
s."
LayerCount: 2
Fore
SplineSet
130 1053 m 257
 1303 1053 l 257
 1303 1133 l 257
 130 1133 l 257
 130 1053 l 257
EndSplineSet
Refer: 59 72 N 1 0 0 1 0 0 2
EndChar

StartChar: I
Encoding: 73 73 62
Width: 1122
VWidth: 0
GlyphClass: 2
Flags: HW
PickledData: "(dp1
S'org.robofab.postScriptHintData'
p2
(dp3
s."
AnchorPoint: "top" 551 1428 basechar 0
AnchorPoint: "ogonek" 676 0 basechar 0
LayerCount: 2
Fore
SplineSet
209 0 m 257
 913 0 l 257
 913 107 l 257
 633 107 l 257
 633 1322 l 257
 913 1322 l 257
 913 1428 l 257
 209 1428 l 257
 209 1322 l 257
 489 1322 l 257
 489 107 l 257
 209 107 l 257
 209 0 l 257
EndSplineSet
EndChar

StartChar: J
Encoding: 74 74 76
Width: 1196
VWidth: 0
GlyphClass: 2
Flags: HW
PickledData: "(dp1
S'org.robofab.postScriptHintData'
p2
(dp3
s."
AnchorPoint: "top" 650 1428 basechar 0
LayerCount: 2
Fore
SplineSet
533 -12 m 256
 854 -12 959 168 959 436 c 258
 959 1428 l 257
 236 1428 l 257
 236 1300 l 257
 816 1300 l 257
 816 431 l 258
 816 209 729 111 535 111 c 256
 363 111 185 180 168 188 c 257
 121 72 l 257
 147 54 350 -12 533 -12 c 256
EndSplineSet
EndChar

StartChar: K
Encoding: 75 75 78
Width: 1387
VWidth: 0
GlyphClass: 2
Flags: HW
PickledData: "(dp1
S'org.robofab.postScriptHintData'
p2
(dp3
s."
AnchorPoint: "top" 719 1428 basechar 0
AnchorPoint: "bot" 665 0 basechar 0
LayerCount: 2
Fore
SplineSet
222 0 m 257
 365 0 l 257
 365 457 l 257
 617 726 l 257
 1135 0 l 257
 1291 0 l 257
 708 794 l 257
 1267 1428 l 257
 1115 1428 l 257
 365 595 l 257
 365 1428 l 257
 222 1428 l 257
 222 0 l 257
EndSplineSet
EndChar

StartChar: L
Encoding: 76 76 81
Width: 1116
VWidth: 0
GlyphClass: 2
Flags: HW
PickledData: "(dp1
S'org.robofab.postScriptHintData'
p2
(dp3
s."
AnchorPoint: "top" 686 1428 basechar 0
AnchorPoint: "bot" 603 0 basechar 0
AnchorPoint: "mid" 236 673 basechar 0
LayerCount: 2
Fore
SplineSet
222 0 m 257
 1033 0 l 257
 1033 109 l 257
 365 109 l 257
 365 1428 l 257
 222 1428 l 257
 222 0 l 257
EndSplineSet
EndChar

StartChar: Lslash
Encoding: 321 321 87
Width: 1129
VWidth: 0
GlyphClass: 2
Flags: HW
PickledData: "(dp1
S'org.robofab.postScriptHintData'
p2
(dp3
s."
LayerCount: 2
Fore
SplineSet
50 500 m 257
 637 871 l 257
 637 995 l 257
 50 614 l 257
 50 500 l 257
EndSplineSet
Refer: 81 76 N 1 0 0 1 0 0 2
EndChar

StartChar: M
Encoding: 77 77 88
Width: 1694
VWidth: 0
GlyphClass: 2
Flags: HW
PickledData: "(dp1
S'org.robofab.postScriptHintData'
p2
(dp3
s."
AnchorPoint: "top" 827 1428 basechar 0
LayerCount: 2
Fore
SplineSet
222 0 m 257
 362 0 l 257
 362 1135 l 257
 800 452 l 257
 899 452 l 257
 1335 1139 l 257
 1335 0 l 257
 1472 0 l 257
 1472 1428 l 257
 1387 1428 l 257
 849 594 l 257
 321 1428 l 257
 222 1428 l 257
 222 0 l 257
EndSplineSet
EndChar

StartChar: N
Encoding: 78 78 90
Width: 1544
VWidth: 0
GlyphClass: 2
Flags: HW
PickledData: "(dp1
S'org.robofab.postScriptHintData'
p2
(dp3
s."
AnchorPoint: "top" 757 1428 basechar 0
AnchorPoint: "bot" 734 0 basechar 0
LayerCount: 2
Fore
SplineSet
222 0 m 257
 345 0 l 257
 345 1169 l 257
 1169 0 l 257
 1322 0 l 257
 1322 1428 l 257
 1197 1428 l 257
 1197 186 l 257
 333 1428 l 257
 222 1428 l 257
 222 0 l 257
EndSplineSet
EndChar

StartChar: O
Encoding: 79 79 95
Width: 1500
VWidth: 0
GlyphClass: 2
Flags: HW
PickledData: "(dp1
S'org.robofab.postScriptHintData'
p2
(dp3
s."
AnchorPoint: "top" 758 1428 basechar 0
AnchorPoint: "ogonek" 779 0 basechar 0
LayerCount: 2
Fore
SplineSet
758 100 m 256
 482 100 341 159 341 447 c 258
 341 963 l 258
 341 1253 484 1329 758 1329 c 256
 1034 1329 1161 1255 1161 963 c 258
 1161 447 l 258
 1161 159 1036 100 758 100 c 256
758 -20 m 256
 1197 -20 1304 189 1304 490 c 258
 1304 916 l 258
 1304 1226 1199 1448 758 1448 c 256
 302 1448 197 1238 197 928 c 258
 197 477 l 258
 197 171 304 -20 758 -20 c 256
EndSplineSet
EndChar

StartChar: OE
Encoding: 338 338 96
Width: 1511
VWidth: 0
GlyphClass: 2
Flags: HW
PickledData: "(dp1
S'org.robofab.postScriptHintData'
p2
(dp3
s."
LayerCount: 2
Fore
SplineSet
810 0 m 258
 1334 0 l 257
 1334 126 l 257
 868 126 l 257
 868 663 l 257
 1273 663 l 257
 1273 788 l 257
 868 788 l 257
 868 1301 l 257
 1321 1301 l 257
 1321 1428 l 257
 810 1428 l 258
 809 1428 808 1428 807 1428 c 0
 306 1428 197 1209 197 894 c 258
 197 512 l 258
 197 208 308 0 810 0 c 258
796 125 m 258
 529 125 358 180 358 500 c 258
 358 915 l 258
 358 1234 530 1305 795 1305 c 258
 708 1305 l 257
 708 125 l 257
 796 125 l 258
EndSplineSet
EndChar

StartChar: uni03A9
Encoding: 937 937 107
Width: 1557
VWidth: 0
GlyphClass: 2
Flags: HW
PickledData: "(dp1
S'org.robofab.postScriptHintData'
p2
(dp3
s."
LayerCount: 2
Fore
SplineSet
779 1455 m 256
 436 1455 210 1344 210 698 c 256
 210 309 307 173 471 102 c 257
 231 102 l 257
 231 0 l 257
 674 0 l 257
 674 110 l 257
 442 177 345 308 345 710 c 256
 345 1258 502 1324 779 1324 c 256
 1049 1324 1212 1258 1212 710 c 256
 1212 308 1116 177 883 110 c 257
 883 0 l 257
 1326 0 l 257
 1326 102 l 257
 1087 102 l 257
 1250 173 1347 309 1347 698 c 256
 1347 1344 1115 1455 779 1455 c 256
EndSplineSet
EndChar

StartChar: Oslash
Encoding: 216 216 109
Width: 1510
VWidth: 0
GlyphClass: 2
Flags: HW
PickledData: "(dp1
S'org.robofab.postScriptHintData'
p2
(dp3
s."
LayerCount: 2
Fore
SplineSet
325 -140 m 257
 1213 1564 l 257
 1131 1600 l 257
 268 -97 l 257
 325 -140 l 257
EndSplineSet
Refer: 95 79 N 1 0 0 1 0 0 2
EndChar

StartChar: P
Encoding: 80 80 112
Width: 1277
VWidth: 0
GlyphClass: 2
Flags: HW
PickledData: "(dp1
S'org.robofab.postScriptHintData'
p2
(dp3
s."
AnchorPoint: "top" 709 1428 basechar 0
LayerCount: 2
Fore
SplineSet
222 0 m 257
 367 0 l 257
 367 541 l 257
 812 541 l 258
 974 541 1154 634 1154 983 c 256
 1154 1310 992 1428 799 1428 c 258
 222 1428 l 257
 222 0 l 257
367 656 m 257
 367 1310 l 257
 792 1310 l 258
 997 1310 997 1102 997 969 c 256
 997 837 980 656 790 656 c 258
 367 656 l 257
EndSplineSet
EndChar

StartChar: Q
Encoding: 81 81 114
Width: 1494
VWidth: 0
GlyphClass: 2
Flags: HW
PickledData: "(dp1
S'org.robofab.postScriptHintData'
p2
(dp3
s."
LayerCount: 2
Fore
SplineSet
973 -394 m 257
 1072 -317 l 257
 875 -16 l 257
 1222 15 1304 212 1304 490 c 258
 1304 916 l 258
 1304 1226 1199 1448 758 1448 c 256
 302 1448 197 1238 197 928 c 258
 197 477 l 258
 197 179 299 -12 725 -21 c 257
 973 -394 l 257
758 100 m 256
 482 100 341 159 341 447 c 258
 341 963 l 258
 341 1253 484 1329 758 1329 c 256
 1034 1329 1161 1255 1161 963 c 258
 1161 447 l 258
 1161 159 1036 100 758 100 c 256
EndSplineSet
EndChar

StartChar: R
Encoding: 82 82 115
Width: 1428
VWidth: 0
GlyphClass: 2
Flags: HW
PickledData: "(dp1
S'org.robofab.postScriptHintData'
p2
(dp3
s."
AnchorPoint: "top" 715 1428 basechar 0
AnchorPoint: "bot" 689 0 basechar 0
LayerCount: 2
Fore
SplineSet
222 0 m 257
 367 0 l 257
 367 609 l 257
 367 609 878 610 896 610 c 257
 1200 0 l 257
 1346 0 l 257
 1026 642 l 257
 1111 680 1222 763 1222 1018 c 256
 1222 1385 1055 1428 845 1428 c 258
 222 1428 l 257
 222 0 l 257
367 726 m 257
 367 1310 l 257
 845 1310 l 258
 1040 1310 1069 1197 1069 1018 c 256
 1069 810 1018 726 829 726 c 258
 367 726 l 257
EndSplineSet
EndChar

StartChar: S
Encoding: 83 83 121
Width: 1318
VWidth: 0
GlyphClass: 2
Flags: HW
PickledData: "(dp1
S'org.robofab.postScriptHintData'
p2
(dp3
s."
AnchorPoint: "top" 680 1428 basechar 0
AnchorPoint: "bot" 638 0 basechar 0
LayerCount: 2
Fore
SplineSet
692 -20 m 256
 1029 -20 1162 118 1162 396 c 256
 1162 623 1090 689 895 757 c 258
 482 900 l 258
 359 943 334 973 334 1103 c 256
 334 1256 395 1329 681 1329 c 256
 935 1329 1037 1288 1112 1250 c 257
 1148 1359 l 257
 1079 1398 938 1448 681 1448 c 256
 392 1448 193 1377 193 1103 c 256
 193 875 284 830 460 769 c 258
 867 628 l 258
 1007 579 1026 526 1026 406 c 256
 1026 182 944 100 692 100 c 256
 467 100 326 148 211 225 c 257
 158 116 l 257
 292 37 419 -20 692 -20 c 256
EndSplineSet
EndChar

StartChar: Sigma
Encoding: 931 931 129
Width: 1132
VWidth: 0
GlyphClass: 2
Flags: HW
PickledData: "(dp1
S'org.robofab.postScriptHintData'
p2
(dp3
s."
LayerCount: 2
Fore
SplineSet
1068 0 m 257
 1068 124 l 257
 246 124 l 257
 719 740 l 257
 719 804 l 257
 238 1306 l 257
 1068 1306 l 257
 1068 1428 l 257
 124 1428 l 257
 124 1302 l 257
 611 763 l 257
 124 133 l 257
 124 0 l 257
 1068 0 l 257
EndSplineSet
EndChar

StartChar: T
Encoding: 84 84 130
Width: 1210
VWidth: 0
GlyphClass: 2
Flags: HW
PickledData: "(dp1
S'org.robofab.postScriptHintData'
p2
(dp3
s."
AnchorPoint: "top" 622 1428 basechar 0
AnchorPoint: "bot" 618 0 basechar 0
AnchorPoint: "mid" 603 748 basechar 0
LayerCount: 2
Fore
SplineSet
532 0 m 257
 676 0 l 257
 676 1300 l 257
 1098 1300 l 257
 1098 1428 l 257
 112 1428 l 257
 112 1300 l 257
 532 1300 l 257
 532 0 l 257
EndSplineSet
EndChar

StartChar: Thorn
Encoding: 222 222 135
Width: 1295
VWidth: 0
GlyphClass: 2
Flags: HW
PickledData: "(dp1
S'org.robofab.postScriptHintData'
p2
(dp3
s."
LayerCount: 2
Fore
SplineSet
210 0 m 257
 355 0 l 257
 355 316 l 257
 792 316 l 258
 954 316 1144 402 1144 750 c 256
 1144 1077 970 1189 777 1189 c 258
 355 1189 l 257
 355 1428 l 257
 210 1428 l 257
 210 0 l 257
355 434 m 257
 355 1068 l 257
 770 1068 l 258
 976 1068 982 869 982 736 c 256
 982 605 961 434 771 434 c 258
 355 434 l 257
EndSplineSet
EndChar

StartChar: U
Encoding: 85 85 136
Width: 1497
VWidth: 0
GlyphClass: 2
Flags: HW
PickledData: "(dp1
S'org.robofab.postScriptHintData'
p2
(dp3
s."
AnchorPoint: "top" 751 1428 basechar 0
AnchorPoint: "ogonek" 812 0 basechar 0
LayerCount: 2
Fore
SplineSet
759 -20 m 256
 1185 -20 1292 209 1292 469 c 258
 1292 1427 l 257
 1147 1427 l 257
 1147 450 l 258
 1147 140 959 100 759 100 c 256
 561 100 350 142 350 450 c 258
 350 1427 l 257
 205 1427 l 257
 205 476 l 258
 205 212 305 -20 759 -20 c 256
EndSplineSet
EndChar

StartChar: V
Encoding: 86 86 150
Width: 1327
VWidth: 0
GlyphClass: 2
Flags: HW
PickledData: "(dp1
S'org.robofab.postScriptHintData'
p2
(dp3
s."
LayerCount: 2
Fore
SplineSet
625 0 m 257
 692 0 l 257
 1214 1428 l 257
 1068 1428 l 257
 658 298 l 257
 256 1428 l 257
 114 1428 l 257
 625 0 l 257
EndSplineSet
EndChar

StartChar: W
Encoding: 87 87 151
Width: 2068
VWidth: 0
GlyphClass: 2
Flags: HW
PickledData: "(dp1
S'org.robofab.postScriptHintData'
p2
(dp3
s."
AnchorPoint: "top" 1062 1428 basechar 0
LayerCount: 2
Fore
SplineSet
567 0 m 257
 651 0 l 257
 1057 1339 l 257
 1433 0 l 257
 1526 0 l 257
 1931 1428 l 257
 1808 1428 l 257
 1479 274 l 257
 1140 1428 l 257
 946 1428 l 257
 605 281 l 257
 263 1428 l 257
 137 1428 l 257
 567 0 l 257
EndSplineSet
EndChar

StartChar: X
Encoding: 88 88 156
Width: 1326
VWidth: 0
GlyphClass: 2
Flags: HW
PickledData: "(dp1
S'org.robofab.postScriptHintData'
p2
(dp3
s."
LayerCount: 2
Fore
SplineSet
128 0 m 257
 281 0 l 257
 666 608 l 257
 1046 0 l 257
 1199 0 l 257
 739 725 l 257
 1185 1428 l 257
 1035 1428 l 257
 669 839 l 257
 295 1428 l 257
 156 1428 l 257
 596 721 l 257
 128 0 l 257
EndSplineSet
EndChar

StartChar: Y
Encoding: 89 89 157
Width: 1305
VWidth: 0
GlyphClass: 2
Flags: HW
PickledData: "(dp1
S'org.robofab.postScriptHintData'
p2
(dp3
s."
AnchorPoint: "top" 670 1428 basechar 0
LayerCount: 2
Fore
SplineSet
580 0 m 257
 724 0 l 257
 724 569 l 257
 1239 1428 l 257
 1088 1428 l 257
 651 675 l 257
 219 1428 l 257
 66 1428 l 257
 580 569 l 257
 580 0 l 257
EndSplineSet
EndChar

StartChar: Z
Encoding: 90 90 164
Width: 1254
VWidth: 0
GlyphClass: 2
Flags: HW
PickledData: "(dp1
S'org.robofab.postScriptHintData'
p2
(dp3
s."
AnchorPoint: "top" 644 1428 basechar 0
LayerCount: 2
Fore
SplineSet
215 0 m 257
 1070 0 l 257
 1070 132 l 257
 378 132 l 257
 1056 1319 l 257
 1056 1428 l 257
 249 1428 l 257
 249 1300 l 257
 892 1300 l 257
 215 125 l 257
 215 0 l 257
EndSplineSet
EndChar

StartChar: a
Encoding: 97 97 168
Width: 1171
VWidth: 0
GlyphClass: 2
Flags: HW
PickledData: "(dp1
S'org.robofab.postScriptHintData'
p2
(dp3
sS'com.typemytype.robofont.layerData'
p4
(dp5
s."
AnchorPoint: "top" 578 1052 basechar 0
AnchorPoint: "ogonek" 1084 16 basechar 0
LayerCount: 2
Fore
SplineSet
162 264 m 0
 162 95 223 -21 468 -21 c 256
 685 -21 783 104 819 162 c 257
 851 54 894 -8 1024 -8 c 258
 1030 -8 l 257
 1058 104 l 257
 972 104 948 124 948 244 c 258
 948 712 l 258
 948 928 859 1070 604 1070 c 256
 335 1070 192 1003 192 793 c 258
 192 736 l 257
 328 736 l 257
 328 786 l 258
 328 872 339 953 598 953 c 256
 795 953 809 857 809 771 c 256
 809 707 807 675 773 663 c 258
 538 576 l 258
 239 465 162 408 162 264 c 0
483 92 m 256
 311 92 293 137 293 262 c 0
 293 365 367 404 555 476 c 257
 809 571 l 257
 809 302 l 257
 792 194 625 92 483 92 c 256
EndSplineSet
EndChar

StartChar: acute
Encoding: 180 180 173
Width: 653
VWidth: 0
GlyphClass: 4
Flags: HW
PickledData: "(dp1
S'org.robofab.postScriptHintData'
p2
(dp3
s."
AnchorPoint: "top" 305 1052 mark 0
LayerCount: 2
Fore
SplineSet
263 1196 m 257
 378 1196 l 257
 614 1586 l 257
 415 1586 l 257
 263 1196 l 257
EndSplineSet
EndChar

StartChar: ae
Encoding: 230 230 177
Width: 1745
VWidth: 0
GlyphClass: 2
Flags: HW
PickledData: "(dp1
S'org.robofab.postScriptHintData'
p2
(dp3
s."
AnchorPoint: "top" 900 1052 basechar 0
LayerCount: 2
Fore
SplineSet
498 -21 m 256
 757 -21 851 90 865 207 c 257
 899 103 983 -21 1191 -21 c 256
 1481 -21 1562 71 1592 297 c 257
 1471 297 l 257
 1452 106 1380 94 1188 94 c 256
 1021 94 943 176 943 332 c 258
 943 509 l 257
 1600 509 l 257
 1600 766 l 258
 1600 958 1449 1070 1203 1070 c 256
 1050 1070 948 1026 892 922 c 257
 861 1022 741 1070 600 1070 c 256
 332 1070 189 1011 189 767 c 258
 189 738 l 257
 325 738 l 257
 325 760 l 258
 325 868 328 953 586 953 c 256
 800 953 808 863 808 791 c 0
 808 785 808 780 808 775 c 256
 808 772 808 770 808 767 c 0
 808 685 804 616 578 568 c 256
 243 498 142 426 142 286 c 0
 142 134 252 -21 498 -21 c 256
494 98 m 256
 373 98 275 140 275 278 c 0
 275 395 417 400 583 450 c 256
 752 499 809 556 809 582 c 0
 809 585 808 588 806 590 c 257
 806 291 l 257
 788 180 635 98 494 98 c 256
943 620 m 257
 943 760 l 258
 943 901 1023 957 1198 957 c 256
 1364 957 1477 919 1477 786 c 258
 1477 620 l 257
 943 620 l 257
EndSplineSet
EndChar

StartChar: ampersand
Encoding: 38 38 183
Width: 1432
VWidth: 0
GlyphClass: 2
Flags: HW
PickledData: "(dp1
S'org.robofab.postScriptHintData'
p2
(dp3
s."
LayerCount: 2
Fore
SplineSet
685 -20 m 256
 984 -20 1100 45 1155 131 c 257
 1315 -17 l 257
 1386 60 l 257
 1207 232 l 257
 1221 296 1222 356 1222 423 c 0
 1222 439 1222 454 1222 471 c 258
 1222 752 l 257
 1106 752 l 257
 1106 415 l 258
 1106 399 1106 346 1105 332 c 257
 511 891 l 258
 416 981 386 1024 386 1132 c 256
 386 1261 466 1347 661 1347 c 256
 858 1347 912 1309 912 1171 c 258
 912 1100 l 257
 1035 1100 l 257
 1035 1192 l 258
 1035 1428 890 1469 661 1469 c 256
 363 1469 247 1320 247 1128 c 256
 247 974 317 908 422 811 c 257
 229 754 172 627 172 426 c 256
 172 252 248 -20 685 -20 c 256
685 99 m 256
 422 99 312 226 312 432 c 256
 312 554 346 687 504 734 c 257
 1068 210 l 257
 1008 108 910 99 685 99 c 256
EndSplineSet
EndChar

StartChar: approxequal
Encoding: 8776 8776 185
Width: 795
VWidth: 0
GlyphClass: 2
Flags: HW
PickledData: "(dp1
S'org.robofab.postScriptHintData'
p2
(dp3
s."
LayerCount: 2
Fore
SplineSet
529 573 m 256
 640 573 729 647 729 798 c 257
 639 798 l 257
 639 741 612 706 537 706 c 256
 471 706 394 811 267 811 c 256
 156 811 66 736 66 586 c 257
 157 586 l 257
 157 642 183 677 258 677 c 256
 325 677 402 573 529 573 c 256
529 827 m 256
 640 827 729 901 729 1052 c 257
 639 1052 l 257
 639 995 612 960 537 960 c 256
 471 960 394 1065 267 1065 c 256
 156 1065 66 990 66 840 c 257
 157 840 l 257
 157 896 183 931 258 931 c 256
 325 931 402 827 529 827 c 256
EndSplineSet
EndChar

StartChar: asciicircum
Encoding: 94 94 188
Width: 1257
VWidth: 0
GlyphClass: 2
Flags: HW
PickledData: "(dp1
S'org.robofab.postScriptHintData'
p2
(dp3
s."
LayerCount: 2
Fore
SplineSet
198 695 m 257
 367 695 l 257
 632 1190 l 257
 900 695 l 257
 1073 695 l 257
 729 1283 l 257
 529 1283 l 257
 198 695 l 257
EndSplineSet
EndChar

StartChar: asciitilde
Encoding: 126 126 189
Width: 795
VWidth: 0
GlyphClass: 2
Flags: HW
PickledData: "(dp1
S'org.robofab.postScriptHintData'
p2
(dp3
s."
LayerCount: 2
Fore
SplineSet
547 1198 m 256
 658 1198 747 1302 747 1453 c 257
 657 1453 l 257
 657 1397 630 1332 555 1332 c 256
 489 1332 376 1466 249 1466 c 256
 138 1466 48 1362 48 1211 c 257
 139 1211 l 257
 139 1268 165 1332 240 1332 c 256
 307 1332 420 1198 547 1198 c 256
EndSplineSet
EndChar

StartChar: asterisk
Encoding: 42 42 190
Width: 1040
VWidth: 0
GlyphClass: 2
Flags: HW
PickledData: "(dp1
S'org.robofab.postScriptHintData'
p2
(dp3
s."
LayerCount: 2
Fore
SplineSet
431 599 m 257
 609 599 l 257
 580 912 l 257
 827 722 l 257
 922 875 l 257
 642 1017 l 257
 933 1134 l 257
 852 1295 l 257
 579 1121 l 257
 609 1446 l 257
 431 1446 l 257
 459 1133 l 257
 212 1323 l 257
 117 1170 l 257
 397 1028 l 257
 107 911 l 257
 187 750 l 257
 460 924 l 257
 431 599 l 257
EndSplineSet
EndChar

StartChar: at
Encoding: 64 64 191
Width: 2048
VWidth: 0
GlyphClass: 2
Flags: HW
PickledData: "(dp1
S'org.robofab.postScriptHintData'
p2
(dp3
s."
LayerCount: 2
Fore
SplineSet
1116 -127 m 256
 1326 -127 1540 -77 1615 -28 c 257
 1569 76 l 257
 1505 26 1317 -24 1101 -24 c 256
 771 -24 586 96 586 259 c 258
 586 1053 l 258
 586 1208 754 1338 1063 1338 c 256
 1479 1338 1501 1176 1501 991 c 257
 1499 991 1419 973 1231 927 c 256
 831 836 753 753 753 596 c 256
 753 451 843 280 1112 280 c 256
 1364 280 1478 402 1524 477 c 257
 1542 394 1568 304 1726 304 c 257
 1746 421 l 257
 1628 421 1625 450 1625 531 c 257
 1625 526 1625 501 1625 501 c 0
 1625 501 1626 586 1626 1038 c 256
 1626 1045 1631 1071 1631 1106 c 0
 1631 1226 1576 1459 1091 1459 c 257
 558 1459 435 1222 435 970 c 258
 435 322 l 258
 435 158 547 -127 1116 -127 c 256
1133 389 m 256
 999 389 924 458 924 596 c 0
 924 688 971 737 1215 799 c 256
 1430 854 1474 861 1500 874 c 257
 1500 609 l 257
 1453 464 1262 389 1133 389 c 256
EndSplineSet
EndChar

StartChar: b
Encoding: 98 98 193
Width: 1187
VWidth: 0
GlyphClass: 2
Flags: HW
PickledData: "(dp1
S'org.robofab.postScriptHintData'
p2
(dp3
s."
AnchorPoint: "top" 641 1052 basechar 0
LayerCount: 2
Fore
SplineSet
603 -21 m 256
 888 -21 1034 150 1034 366 c 258
 1034 726 l 258
 1034 944 883 1070 631 1070 c 256
 526 1070 403 1034 333 992 c 257
 333 1500 l 257
 196 1500 l 257
 196 0 l 257
 306 0 l 257
 328 75 l 257
 376 46 471 -21 603 -21 c 256
585 101 m 256
 486 101 397 140 333 171 c 257
 333 878 l 257
 433 923 564 953 646 953 c 256
 794 953 897 884 897 745 c 258
 897 337 l 258
 897 194 751 101 585 101 c 256
EndSplineSet
EndChar

StartChar: backslash
Encoding: 92 92 194
Width: 614
VWidth: 0
GlyphClass: 2
Flags: HW
PickledData: "(dp1
S'org.robofab.postScriptHintData'
p2
(dp3
s."
LayerCount: 2
Fore
SplineSet
429 0 m 257
 576 0 l 257
 192 1500 l 257
 39 1500 l 257
 429 0 l 257
EndSplineSet
EndChar

StartChar: bar
Encoding: 124 124 195
Width: 643
VWidth: 0
GlyphClass: 2
Flags: HW
PickledData: "(dp1
S'org.robofab.postScriptHintData'
p2
(dp3
s."
LayerCount: 2
Fore
SplineSet
252 -192 m 257
 391 -192 l 257
 391 1523 l 257
 252 1523 l 257
 252 -192 l 257
EndSplineSet
EndChar

StartChar: braceleft
Encoding: 123 123 197
Width: 928
VWidth: 0
GlyphClass: 2
Flags: HW
PickledData: "(dp1
S'org.robofab.postScriptHintData'
p2
(dp3
s."
LayerCount: 2
Fore
SplineSet
489 224 m 258
 489 374 l 258
 489 529 417 593 369 605 c 257
 420 623 489 670 489 835 c 258
 489 977 l 258
 489 1266 490 1339 837 1339 c 257
 837 1456 l 257
 388 1456 348 1307 348 1118 c 0
 348 1077 350 1035 350 991 c 258
 350 986 l 258
 350 673 322 660 99 660 c 257
 99 561 l 257
 323 561 350 519 350 225 c 258
 350 211 l 258
 350 170 349 131 349 94 c 0
 349 -110 383 -234 837 -234 c 257
 837 -117 l 257
 489 -117 489 -57 489 224 c 258
EndSplineSet
EndChar

StartChar: braceright
Encoding: 125 125 198
Width: 929
VWidth: 0
GlyphClass: 2
Flags: HW
PickledData: "(dp1
S'org.robofab.postScriptHintData'
p2
(dp3
s."
LayerCount: 2
Fore
SplineSet
99 -234 m 257
 553 -234 587 -110 587 94 c 0
 587 131 586 170 586 211 c 258
 586 225 l 258
 586 519 613 561 837 561 c 257
 837 660 l 257
 614 660 586 673 586 986 c 258
 586 991 l 258
 586 1035 588 1077 588 1118 c 0
 588 1307 548 1456 99 1456 c 257
 99 1339 l 257
 446 1339 447 1266 447 977 c 258
 447 835 l 258
 447 670 516 623 567 605 c 257
 519 593 447 529 447 374 c 258
 447 224 l 258
 447 -57 447 -117 99 -117 c 257
 99 -234 l 257
EndSplineSet
EndChar

StartChar: bracketleft
Encoding: 91 91 199
Width: 724
VWidth: 0
GlyphClass: 2
Flags: HW
PickledData: "(dp1
S'org.robofab.postScriptHintData'
p2
(dp3
s."
LayerCount: 2
Fore
SplineSet
282 -68 m 257
 598 -68 l 257
 598 50 l 257
 419 50 l 257
 419 1375 l 257
 598 1375 l 257
 598 1491 l 257
 282 1491 l 257
 282 -68 l 257
EndSplineSet
EndChar

StartChar: bracketright
Encoding: 93 93 200
Width: 724
VWidth: 0
GlyphClass: 2
Flags: HW
PickledData: "(dp1
S'org.robofab.postScriptHintData'
p2
(dp3
s."
LayerCount: 2
Fore
SplineSet
224 -68 m 257
 540 -68 l 257
 540 1491 l 257
 224 1491 l 257
 224 1373 l 257
 402 1373 l 257
 402 48 l 257
 224 48 l 257
 224 -68 l 257
EndSplineSet
EndChar

StartChar: breve
Encoding: 728 728 201
Width: 512
VWidth: 0
GlyphClass: 4
Flags: HW
PickledData: "(dp1
S'org.robofab.postScriptHintData'
p2
(dp3
s."
AnchorPoint: "top" 267 1052 mark 0
LayerCount: 2
Fore
SplineSet
256 1173 m 256
 402 1173 464 1293 464 1357 c 257
 349 1357 l 257
 349 1307 302 1273 256 1273 c 256
 210 1273 163 1307 163 1357 c 257
 48 1357 l 257
 48 1293 110 1173 256 1173 c 256
EndSplineSet
EndChar

StartChar: brokenbar
Encoding: 166 166 202
Width: 617
VWidth: 0
GlyphClass: 2
Flags: HW
PickledData: "(dp1
S'org.robofab.postScriptHintData'
p2
(dp3
s."
LayerCount: 2
Fore
SplineSet
238 -195 m 257
 398 -195 l 257
 398 467 l 257
 238 467 l 257
 238 -195 l 257
238 877 m 257
 398 877 l 257
 398 1602 l 257
 238 1602 l 257
 238 877 l 257
EndSplineSet
EndChar

StartChar: bullet
Encoding: 8226 8226 203
Width: 946
VWidth: 0
GlyphClass: 2
Flags: HW
PickledData: "(dp1
S'org.robofab.postScriptHintData'
p2
(dp3
s."
LayerCount: 2
Fore
SplineSet
471 243 m 256
 718 243 773 334 773 534 c 256
 773 737 720 827 472 827 c 256
 228 827 173 737 173 534 c 256
 173 333 225 243 471 243 c 256
EndSplineSet
EndChar

StartChar: uni2219
Encoding: 8729 8729 204
Width: 600
VWidth: 0
GlyphClass: 2
Flags: HW
PickledData: "(dp1
S'org.robofab.postScriptHintData'
p2
(dp3
s."
LayerCount: 2
Fore
SplineSet
199 685 m 257
 392 685 l 257
 392 893 l 257
 199 893 l 257
 199 685 l 257
EndSplineSet
EndChar

StartChar: c
Encoding: 99 99 205
Width: 1075
VWidth: 0
GlyphClass: 2
Flags: HW
PickledData: "(dp1
S'org.robofab.postScriptHintData'
p2
(dp3
s."
AnchorPoint: "top" 583 1052 basechar 0
AnchorPoint: "bot" 540 0 basechar 0
LayerCount: 2
Fore
SplineSet
573 -21 m 256
 827 -21 938 59 968 268 c 257
 842 268 l 257
 819 122 780 94 569 94 c 256
 401 94 290 157 290 332 c 258
 290 735 l 258
 290 894 380 953 569 953 c 256
 765 953 837 917 838 724 c 257
 970 739 l 257
 970 1010 799 1070 567 1070 c 256
 315 1070 153 934 153 743 c 258
 153 354 l 258
 153 153 288 -21 573 -21 c 256
EndSplineSet
EndChar

StartChar: caron
Encoding: 711 711 207
Width: 512
VWidth: 0
GlyphClass: 4
Flags: HW
PickledData: "(dp1
S'org.robofab.postScriptHintData'
p2
(dp3
s."
AnchorPoint: "top" 261 1052 mark 0
LayerCount: 2
Fore
SplineSet
312 1189 m 257
 515 1435 l 257
 369 1435 l 257
 261 1291 l 257
 145 1435 l 257
 -5 1435 l 257
 207 1189 l 257
 312 1189 l 257
EndSplineSet
EndChar

StartChar: caron.alt
Encoding: 65536 -1 208
Width: 600
VWidth: 0
GlyphClass: 4
Flags: HW
PickledData: "(dp1
S'org.robofab.postScriptHintData'
p2
(dp3
s."
AnchorPoint: "caron.alt" 280 1052 mark 0
LayerCount: 2
Fore
SplineSet
710 1239 m 257
 766 1292 868 1410 868 1595 c 258
 868 1754 l 257
 650 1754 l 257
 650 1547 l 257
 776 1547 l 257
 776 1418 689 1335 645 1282 c 257
 710 1239 l 257
EndSplineSet
EndChar

StartChar: cedilla
Encoding: 184 184 213
Width: 512
VWidth: 0
GlyphClass: 4
Flags: HW
PickledData: "(dp1
S'org.robofab.postScriptHintData'
p2
(dp3
s."
AnchorPoint: "bot" 183 0 mark 0
LayerCount: 2
Fore
SplineSet
196 -471 m 256
 361 -471 444 -382 444 -288 c 256
 444 -200 352 -106 205 -80 c 257
 199 10 l 257
 163 10 l 257
 163 -140 l 257
 265 -143 332 -215 332 -281 c 256
 332 -333 289 -387 179 -387 c 256
 156 -387 131 -385 104 -380 c 257
 104 -464 l 257
 137 -469 168 -471 196 -471 c 256
EndSplineSet
EndChar

StartChar: cent
Encoding: 162 162 214
Width: 1112
VWidth: 0
GlyphClass: 2
Flags: HW
PickledData: "(dp1
S'org.robofab.postScriptHintData'
p2
(dp3
s."
LayerCount: 2
Fore
SplineSet
541 1017 m 257
 650 1017 l 257
 650 1269 l 257
 541 1269 l 257
 541 1017 l 257
541 -200 m 257
 650 -200 l 257
 650 52 l 257
 541 52 l 257
 541 -200 l 257
EndSplineSet
Refer: 205 99 N 1 0 0 1 0 0 2
EndChar

StartChar: circumflex
Encoding: 710 710 215
Width: 512
VWidth: 0
GlyphClass: 4
Flags: HW
PickledData: "(dp1
S'org.robofab.postScriptHintData'
p2
(dp3
s."
AnchorPoint: "top" 249 1052 mark 0
LayerCount: 2
Fore
SplineSet
-8 1206 m 257
 142 1206 l 257
 258 1350 l 257
 366 1206 l 257
 512 1206 l 257
 309 1452 l 257
 204 1452 l 257
 -8 1206 l 257
EndSplineSet
EndChar

StartChar: comma
Encoding: 44 44 217
Width: 565
VWidth: 0
GlyphClass: 2
Flags: HW
PickledData: "(dp1
S'org.robofab.postScriptHintData'
p2
(dp3
s."
LayerCount: 2
Fore
SplineSet
234 -307 m 257
 289 -255 391 -137 391 48 c 258
 391 207 l 257
 173 207 l 257
 173 0 l 257
 300 0 l 257
 300 -128 213 -211 168 -265 c 257
 234 -307 l 257
EndSplineSet
EndChar

StartChar: copyright
Encoding: 169 169 218
Width: 1789
VWidth: 0
GlyphClass: 2
Flags: HW
PickledData: "(dp1
S'org.robofab.postScriptHintData'
p2
(dp3
s."
LayerCount: 2
Fore
SplineSet
905 287 m 256
 1181 287 1230 422 1230 598 c 258
 1230 632 l 257
 1114 632 l 257
 1114 571 l 258
 1114 419 1058 376 905 376 c 256
 753 376 673 419 673 571 c 258
 673 890 l 258
 673 1042 753 1091 904 1091 c 256
 1056 1091 1114 1042 1114 890 c 258
 1114 826 l 257
 1230 836 l 257
 1230 861 l 258
 1230 1043 1181 1182 904 1182 c 256
 616 1182 553 1050 553 868 c 258
 553 590 l 258
 553 411 618 287 905 287 c 256
896 82 m 256
 532 82 267 357 267 722 c 256
 267 1086 532 1361 896 1361 c 256
 1262 1361 1524 1086 1524 722 c 256
 1524 357 1262 82 896 82 c 256
894 -14 m 256
 1310 -14 1630 303 1630 722 c 256
 1630 1139 1310 1456 894 1456 c 256
 481 1456 158 1139 158 722 c 256
 158 303 481 -14 894 -14 c 256
EndSplineSet
EndChar

StartChar: currency
Encoding: 164 164 219
Width: 1163
VWidth: 0
GlyphClass: 2
Flags: HW
PickledData: "(dp1
S'org.robofab.postScriptHintData'
p2
(dp3
s."
LayerCount: 2
Fore
SplineSet
839 829 m 257
 994 963 l 257
 955 1015 l 257
 806 881 l 257
 741 951 663 985 572 985 c 256
 481 985 403 951 338 881 c 257
 189 1015 l 257
 150 963 l 257
 305 829 l 257
 276 773 266 715 266 671 c 256
 266 627 276 569 305 513 c 257
 160 379 l 257
 199 327 l 257
 338 461 l 257
 403 391 481 357 572 357 c 256
 663 357 741 391 806 461 c 257
 945 327 l 257
 984 379 l 257
 839 513 l 257
 868 569 878 627 878 671 c 256
 878 715 868 773 839 829 c 257
327 671 m 256
 327 847 449 937 572 937 c 256
 695 937 817 847 817 671 c 256
 817 495 695 405 572 405 c 256
 449 405 327 495 327 671 c 256
EndSplineSet
EndChar

StartChar: d
Encoding: 100 100 220
Width: 1183
VWidth: 0
GlyphClass: 2
Flags: HW
PickledData: "(dp1
S'org.robofab.postScriptHintData'
p2
(dp3
s."
AnchorPoint: "top" 606 1052 basechar 0
AnchorPoint: "caron.alt" 746 1052 basechar 0
AnchorPoint: "mid" 912 1269 basechar 0
LayerCount: 2
Fore
SplineSet
569 -21 m 256
 677 -21 804 27 861 74 c 257
 893 0 l 257
 988 0 l 257
 988 1500 l 257
 850 1500 l 257
 850 1029 l 257
 782 1053 665 1070 594 1070 c 256
 289 1070 153 946 153 724 c 258
 153 342 l 258
 153 145 255 -21 569 -21 c 256
569 101 m 256
 420 101 290 176 290 322 c 258
 290 754 l 258
 290 897 421 953 583 953 c 256
 679 953 782 938 850 905 c 257
 850 176 l 257
 806 149 695 101 569 101 c 256
EndSplineSet
EndChar

StartChar: dagger
Encoding: 8224 8224 221
Width: 810
VWidth: 0
GlyphClass: 2
Flags: HW
PickledData: "(dp1
S'org.robofab.postScriptHintData'
p2
(dp3
s."
LayerCount: 2
Fore
SplineSet
311 0 m 257
 489 0 l 257
 489 975 l 257
 764 975 l 257
 764 1088 l 257
 489 1088 l 257
 489 1519 l 257
 311 1519 l 257
 311 1088 l 257
 45 1088 l 257
 45 975 l 257
 311 975 l 257
 311 0 l 257
EndSplineSet
EndChar

StartChar: daggerdbl
Encoding: 8225 8225 222
Width: 886
VWidth: 0
GlyphClass: 2
Flags: HW
PickledData: "(dp1
S'org.robofab.postScriptHintData'
p2
(dp3
s."
LayerCount: 2
Fore
SplineSet
350 0 m 257
 528 0 l 257
 528 425 l 257
 838 425 l 257
 838 519 l 257
 528 519 l 257
 528 966 l 257
 838 966 l 257
 838 1061 l 257
 528 1061 l 257
 528 1519 l 257
 350 1519 l 257
 350 1061 l 257
 48 1061 l 257
 48 966 l 257
 350 966 l 257
 350 519 l 257
 48 519 l 257
 48 425 l 257
 350 425 l 257
 350 0 l 257
EndSplineSet
EndChar

StartChar: degree
Encoding: 176 176 226
Width: 1073
VWidth: 0
GlyphClass: 2
Flags: HW
PickledData: "(dp1
S'org.robofab.postScriptHintData'
p2
(dp3
s."
LayerCount: 2
Fore
SplineSet
537 821 m 256
 410 821 293 938 293 1088 c 256
 293 1240 410 1356 537 1356 c 256
 665 1356 782 1240 782 1088 c 256
 782 938 666 821 537 821 c 256
535 767 m 256
 679 767 840 903 840 1087 c 256
 840 1269 679 1407 535 1407 c 256
 394 1407 234 1269 234 1087 c 256
 234 903 395 767 535 767 c 256
EndSplineSet
EndChar

StartChar: dieresis
Encoding: 168 168 227
Width: 1060
VWidth: 0
GlyphClass: 4
Flags: HW
PickledData: "(dp1
S'org.robofab.postScriptHintData'
p2
(dp3
s."
AnchorPoint: "top" 524 1052 mark 0
LayerCount: 2
Fore
SplineSet
244 1222 m 257
 415 1222 l 257
 415 1372 l 257
 244 1372 l 257
 244 1222 l 257
623 1222 m 257
 794 1222 l 257
 794 1372 l 257
 623 1372 l 257
 623 1222 l 257
EndSplineSet
EndChar

StartChar: divide
Encoding: 247 247 228
Width: 1038
VWidth: 0
GlyphClass: 2
Flags: HW
PickledData: "(dp1
S'org.robofab.postScriptHintData'
p2
(dp3
s."
LayerCount: 2
Fore
SplineSet
427 88 m 257
 619 88 l 257
 619 285 l 257
 427 285 l 257
 427 88 l 257
93 468 m 257
 945 468 l 257
 945 589 l 257
 93 589 l 257
 93 468 l 257
427 784 m 257
 619 784 l 257
 619 981 l 257
 427 981 l 257
 427 784 l 257
EndSplineSet
EndChar

StartChar: dollar
Encoding: 36 36 230
Width: 1316
VWidth: 0
GlyphClass: 2
Flags: HW
PickledData: "(dp1
S'org.robofab.postScriptHintData'
p2
(dp3
s."
LayerCount: 2
Fore
SplineSet
623 -408 m 257
 733 -408 l 257
 733 1758 l 257
 623 1758 l 257
 623 -408 l 257
EndSplineSet
Refer: 121 83 N 1 0 0 1 0 0 2
EndChar

StartChar: dotaccent
Encoding: 729 729 231
Width: 526
VWidth: 0
GlyphClass: 4
Flags: HW
PickledData: "(dp1
S'org.robofab.postScriptHintData'
p2
(dp3
s."
AnchorPoint: "top" 246 1052 mark 0
LayerCount: 2
Fore
SplineSet
174 1243 m 257
 312 1243 l 257
 312 1423 l 257
 174 1423 l 257
 174 1243 l 257
EndSplineSet
EndChar

StartChar: dotlessi
Encoding: 305 305 232
Width: 548
VWidth: 0
GlyphClass: 2
Flags: HW
PickledData: "(dp1
S'org.robofab.postScriptHintData'
p2
(dp3
s."
AnchorPoint: "top" 290 1052 basechar 0
AnchorPoint: "ogonek" 301 0 basechar 0
LayerCount: 2
Fore
SplineSet
205 0 m 257
 355 0 l 257
 355 1052 l 257
 205 1052 l 257
 205 0 l 257
EndSplineSet
EndChar

StartChar: uni0237
Encoding: 567 567 233
Width: 548
VWidth: 0
GlyphClass: 2
Flags: HW
PickledData: "(dp1
S'org.robofab.postScriptHintData'
p2
(dp3
s."
AnchorPoint: "top" 299 1052 basechar 0
LayerCount: 2
Fore
SplineSet
46 -359 m 257
 128 -356 l 258
 308 -349 366 -310 366 -7 c 258
 366 1052 l 257
 228 1052 l 257
 228 -32 l 258
 228 -213 207 -233 92 -237 c 258
 39 -239 l 257
 46 -359 l 257
EndSplineSet
EndChar

StartChar: e
Encoding: 101 101 236
Width: 1112
VWidth: 0
GlyphClass: 2
Flags: HW
PickledData: "(dp1
S'org.robofab.postScriptHintData'
p2
(dp3
s."
AnchorPoint: "top" 564 1052 basechar 0
AnchorPoint: "ogonek" 693 0 basechar 0
AnchorPoint: "bot" 581 0 basechar 0
LayerCount: 2
Fore
SplineSet
565 -21 m 256
 865 -21 944 42 967 253 c 257
 850 253 l 257
 832 104 767 96 562 96 c 256
 320 96 290 186 290 385 c 258
 290 519 l 257
 977 519 l 257
 977 766 l 258
 977 958 839 1070 572 1070 c 256
 253 1070 153 924 153 736 c 258
 153 397 l 258
 153 130 217 -21 565 -21 c 256
290 622 m 257
 290 753 l 258
 290 894 394 953 568 953 c 256
 735 953 840 912 840 779 c 258
 840 622 l 257
 290 622 l 257
EndSplineSet
EndChar

StartChar: eight
Encoding: 56 56 245
Width: 1148
VWidth: 0
GlyphClass: 2
Flags: HW
PickledData: "(dp1
S'org.robofab.postScriptHintData'
p2
(dp3
s."
LayerCount: 2
Fore
SplineSet
573 -20 m 256
 868 -20 1035 93 1035 363 c 256
 1035 597 854 707 743 767 c 257
 861 838 1013 886 1013 1096 c 256
 1013 1400 756 1451 576 1451 c 256
 390 1451 141 1399 141 1092 c 256
 141 890 292 839 415 767 c 257
 279 707 113 585 113 364 c 256
 113 89 284 -20 573 -20 c 256
573 100 m 256
 395 100 255 141 255 361 c 256
 255 545 425 641 575 719 c 257
 723 641 896 545 896 361 c 256
 896 141 753 100 573 100 c 256
575 812 m 257
 443 876 285 957 285 1100 c 256
 285 1238 365 1323 576 1323 c 256
 784 1323 866 1240 866 1100 c 256
 866 954 712 877 575 812 c 257
EndSplineSet
EndChar

StartChar: emdash
Encoding: 8212 8212 249
Width: 1185
VWidth: 0
GlyphClass: 2
Flags: HW
PickledData: "(dp1
S'org.robofab.postScriptHintData'
p2
(dp3
s."
LayerCount: 2
Fore
SplineSet
1 413 m 257
 1183 413 l 257
 1183 543 l 257
 1 543 l 257
 1 413 l 257
EndSplineSet
EndChar

StartChar: emptyset
Encoding: 8709 8709 250
Width: 1552
VWidth: 0
GlyphClass: 2
Flags: HW
PickledData: "(dp1
S'org.robofab.postScriptHintData'
p2
(dp3
s."
LayerCount: 2
Fore
SplineSet
778 144 m 256
 472 144 248 375 248 682 c 256
 248 987 472 1219 778 1219 c 256
 1085 1219 1306 987 1306 682 c 256
 1306 375 1085 144 778 144 c 256
776 66 m 256
 1124 66 1392 331 1392 682 c 256
 1392 1031 1124 1296 776 1296 c 256
 430 1296 160 1031 160 682 c 256
 160 331 430 66 776 66 c 256
212 44 m 257
 267 0 l 257
 1344 1283 l 257
 1289 1327 l 257
 212 44 l 257
EndSplineSet
EndChar

StartChar: endash
Encoding: 8211 8211 251
Width: 433
VWidth: 0
GlyphClass: 2
Flags: HW
PickledData: "(dp1
S'org.robofab.postScriptHintData'
p2
(dp3
s."
LayerCount: 2
Fore
SplineSet
-74 702 m 257
 503 702 l 257
 503 804 l 257
 -74 804 l 257
 -74 702 l 257
EndSplineSet
EndChar

StartChar: eng
Encoding: 331 331 252
Width: 1209
VWidth: 0
GlyphClass: 2
Flags: HW
PickledData: "(dp1
S'org.robofab.postScriptHintData'
p2
(dp3
s."
LayerCount: 2
Fore
SplineSet
694 -287 m 257
 982 -287 1019 -138 1019 243 c 258
 1019 756 l 258
 1019 916 941 1070 647 1070 c 256
 490 1070 410 1028 339 962 c 257
 339 1052 l 257
 202 1052 l 257
 202 0 l 257
 339 0 l 257
 339 753 l 258
 339 853 404 953 639 953 c 256
 798 953 882 889 882 789 c 258
 882 236 l 258
 882 169 884 112 884 63 c 0
 884 -106 865 -176 702 -176 c 0
 691 -176 679 -176 666 -175 c 257
 694 -287 l 257
EndSplineSet
EndChar

StartChar: equal
Encoding: 61 61 254
Width: 1472
VWidth: 0
GlyphClass: 2
Flags: HW
PickledData: "(dp1
S'org.robofab.postScriptHintData'
p2
(dp3
s."
LayerCount: 2
Fore
SplineSet
291 525 m 257
 1181 525 l 257
 1181 658 l 257
 291 658 l 257
 291 525 l 257
291 844 m 257
 1181 844 l 257
 1181 977 l 257
 291 977 l 257
 291 844 l 257
EndSplineSet
EndChar

StartChar: estimated
Encoding: 8494 8494 255
Width: 1195
VWidth: 0
GlyphClass: 2
Flags: HW
PickledData: "(dp1
S'org.robofab.postScriptHintData'
p2
(dp3
s."
LayerCount: 2
Fore
SplineSet
639 1232 m 256
 767 1232 892 1179 963 1072 c 257
 963 779 l 257
 301 779 l 257
 301 1074 l 257
 379 1178 511 1232 639 1232 c 256
95 730 m 256
 95 413 282 178 662 178 c 256
 868 178 1002 267 1101 385 c 257
 1070 419 l 257
 954 296 787 240 655 240 c 256
 528 240 385 293 297 395 c 257
 297 715 l 257
 1109 715 l 257
 1109 1044 955 1280 637 1280 c 256
 317 1280 95 1041 95 730 c 256
EndSplineSet
EndChar

StartChar: eth
Encoding: 240 240 256
Width: 1066
VWidth: 0
GlyphClass: 2
Flags: HW
PickledData: "(dp1
S'org.robofab.postScriptHintData'
p2
(dp3
s."
LayerCount: 2
Fore
SplineSet
533 -18 m 256
 901 -18 908 142 908 290 c 0
 908 296 908 302 908 308 c 258
 908 856 l 258
 908 870 908 885 908 901 c 0
 908 1058 899 1287 698 1414 c 257
 812 1545 l 257
 732 1594 l 257
 622 1461 l 257
 548 1479 479 1486 419 1486 c 0
 328 1486 260 1471 227 1462 c 257
 196 1357 l 257
 234 1363 291 1370 359 1370 c 0
 410 1370 468 1366 527 1355 c 257
 365 1143 l 257
 446 1094 l 257
 618 1316 l 257
 731 1238 799 1119 799 953 c 0
 799 937 798 921 797 905 c 257
 770 928 697 975 551 975 c 256
 288 975 140 846 140 663 c 258
 140 297 l 258
 140 118 238 -18 533 -18 c 256
533 87 m 257
 398 87 273 133 273 293 c 258
 273 676 l 258
 273 807 387 857 533 857 c 256
 593 857 738 841 788 811 c 257
 788 813 787 814 787 814 c 0
 779 814 775 353 774 318 c 256
 775 305 775 292 775 279 c 0
 775 184 748 87 533 87 c 257
EndSplineSet
EndChar

StartChar: exclam
Encoding: 33 33 258
Width: 576
VWidth: 0
GlyphClass: 2
Flags: HW
PickledData: "(dp1
S'org.robofab.postScriptHintData'
p2
(dp3
s."
LayerCount: 2
Fore
SplineSet
200 0 m 257
 376 0 l 257
 376 183 l 257
 200 183 l 257
 200 0 l 257
264 348 m 257
 308 348 l 257
 308 348 374 881 374 1427 c 257
 206 1427 l 257
 206 881 264 348 264 348 c 257
EndSplineSet
EndChar

StartChar: f
Encoding: 102 102 260
Width: 784
VWidth: 0
GlyphClass: 2
Flags: HW
PickledData: "(dp1
S'org.robofab.postScriptHintData'
p2
(dp3
s."
AnchorPoint: "top" 368 1428 basechar 0
LayerCount: 2
Fore
SplineSet
309 0 m 257
 447 0 l 257
 447 940 l 257
 729 940 l 257
 729 1052 l 257
 447 1052 l 257
 447 1271 l 258
 447 1349 495 1399 608 1399 c 258
 743 1399 l 257
 728 1498 l 257
 613 1498 l 258
 418 1498 309 1442 309 1279 c 258
 309 1052 l 257
 112 1052 l 257
 112 940 l 257
 309 940 l 257
 309 0 l 257
EndSplineSet
EndChar

StartChar: uni02C9
Encoding: 713 713 265
Width: 514
VWidth: 0
GlyphClass: 4
Flags: HW
AnchorPoint: "top" 257 1052 mark 0
AnchorPoint: "mid" 256 1325 mark 0
LayerCount: 2
Fore
SplineSet
15 1265 m 257
 499 1265 l 257
 499 1376 l 257
 15 1376 l 257
 15 1265 l 257
EndSplineSet
EndChar

StartChar: five
Encoding: 53 53 266
Width: 1148
VWidth: 0
GlyphClass: 2
Flags: HW
PickledData: "(dp1
S'org.robofab.postScriptHintData'
p2
(dp3
s."
LayerCount: 2
Fore
SplineSet
546 -20 m 256
 844 -20 1000 158 1000 434 c 256
 1000 760 809 883 597 883 c 256
 505 883 402 856 325 790 c 257
 368 1312 l 257
 919 1312 l 257
 919 1428 l 257
 245 1428 l 257
 212 693 l 257
 317 661 l 257
 398 730 499 760 597 760 c 256
 742 760 872 668 872 419 c 256
 872 228 759 103 546 103 c 256
 376 103 257 170 178 221 c 257
 142 96 l 257
 254 37 369 -20 546 -20 c 256
EndSplineSet
EndChar

StartChar: florin
Encoding: 402 402 269
Width: 810
VWidth: 0
GlyphClass: 2
Flags: HW
PickledData: "(dp1
S'org.robofab.postScriptHintData'
p2
(dp3
s."
LayerCount: 2
Fore
SplineSet
172 -187 m 256
 312 -187 443 -136 443 85 c 258
 443 676 l 257
 652 676 l 257
 652 755 l 257
 443 755 l 257
 443 1159 l 258
 443 1298 488 1373 623 1373 c 256
 638 1373 653 1372 670 1370 c 257
 670 1447 l 257
 639 1450 607 1453 576 1453 c 256
 435 1453 311 1401 311 1139 c 258
 311 755 l 257
 112 755 l 257
 112 676 l 257
 311 676 l 257
 311 56 l 258
 311 -70 218 -98 89 -98 c 0
 84 -98 80 -98 75 -98 c 257
 75 -180 l 257
 107 -184 140 -187 172 -187 c 256
EndSplineSet
EndChar

StartChar: foundryicon
Encoding: 65538 -1 270
Width: 1347
VWidth: 0
GlyphClass: 2
Flags: HW
PickledData: "(dp1
S'org.robofab.postScriptHintData'
p2
(dp3
s."
LayerCount: 2
Fore
SplineSet
485 405 m 257
 485 672 l 257
 591 672 l 257
 761 523 l 257
 761 672 l 257
 867 672 l 257
 867 405 l 257
 761 405 l 257
 591 552 l 257
 591 405 l 257
 485 405 l 257
280 2 m 257
 669 278 l 257
 1066 2 l 257
 922 461 l 257
 1313 755 l 257
 828 755 l 257
 669 1215 l 257
 519 755 l 257
 34 755 l 257
 423 461 l 257
 280 2 l 257
EndSplineSet
EndChar

StartChar: four
Encoding: 52 52 271
Width: 1148
VWidth: 0
GlyphClass: 2
Flags: HW
PickledData: "(dp1
S'org.robofab.postScriptHintData'
p2
(dp3
s."
LayerCount: 2
Fore
SplineSet
723 0 m 257
 848 0 l 257
 848 384 l 257
 1056 384 l 257
 1056 493 l 257
 848 493 l 257
 848 822 l 257
 723 822 l 257
 723 493 l 257
 254 493 l 257
 739 1428 l 257
 598 1428 l 257
 101 494 l 257
 101 384 l 257
 723 384 l 257
 723 0 l 257
EndSplineSet
Substitution2: "supsSuperscriptlookup11 subtable" uni2074
EndChar

StartChar: uni2074
Encoding: 8308 8308 272
Width: 1010
VWidth: 0
GlyphClass: 2
Flags: HW
PickledData: "(dp1
S'org.robofab.postScriptHintData'
p2
(dp3
s."
LayerCount: 2
Fore
SplineSet
605 717 m 257
 693 717 l 257
 693 928 l 257
 826 928 l 257
 826 999 l 257
 693 999 l 257
 693 1216 l 257
 605 1216 l 257
 605 999 l 257
 307 999 l 257
 563 1524 l 257
 474 1524 l 257
 199 982 l 257
 199 928 l 257
 605 928 l 257
 605 717 l 257
EndSplineSet
EndChar

StartChar: fraction
Encoding: 8260 8260 273
Width: 677
VWidth: 0
GlyphClass: 2
Flags: HW
PickledData: "(dp1
S'org.robofab.postScriptHintData'
p2
(dp3
s."
LayerCount: 2
Fore
SplineSet
-7 0 m 257
 136 0 l 257
 684 1500 l 257
 547 1500 l 257
 -7 0 l 257
EndSplineSet
EndChar

StartChar: g
Encoding: 103 103 274
Width: 1145
VWidth: 0
GlyphClass: 2
Flags: HW
PickledData: "(dp1
S'org.robofab.postScriptHintData'
p2
(dp3
s."
AnchorPoint: "top" 557 1052 basechar 0
LayerCount: 2
Fore
SplineSet
611 -388 m 256
 852 -388 971 -191 971 47 c 258
 971 1051 l 257
 851 1051 l 257
 835 971 l 257
 797 1018 712 1070 551 1070 c 256
 291 1070 153 945 153 714 c 258
 153 387 l 258
 153 161 266 45 545 45 c 256
 612 45 776 66 833 133 c 257
 833 -32 l 258
 833 -194 757 -279 555 -279 c 256
 445 -279 329 -260 297 -243 c 257
 264 -358 l 257
 344 -383 462 -388 611 -388 c 256
564 167 m 256
 411 167 290 208 290 346 c 258
 290 743 l 258
 290 886 400 953 562 953 c 256
 756 953 833 895 833 765 c 258
 833 266 l 257
 808 244 733 167 564 167 c 256
EndSplineSet
EndChar

StartChar: germandbls
Encoding: 223 223 281
Width: 1278
VWidth: 0
GlyphClass: 2
Flags: HW
PickledData: "(dp1
S'org.robofab.postScriptHintData'
p2
(dp3
s."
LayerCount: 2
Fore
SplineSet
220 0 m 257
 335 0 l 257
 335 1132 l 258
 335 1338 496 1340 641 1340 c 2
 649 1340 l 258
 657 1340 666 1340 674 1340 c 0
 780 1340 889 1332 889 1124 c 256
 889 982 829 923 589 923 c 257
 589 810 l 257
 621 811 651 812 681 812 c 0
 890 812 1032 765 1032 523 c 257
 1032 133 745 167 466 135 c 257
 484 12 l 257
 877 12 1138 97 1138 541 c 256
 1138 929 931 871 916 913 c 257
 990 934 1022 972 1022 1143 c 256
 1022 1354 901 1469 675 1469 c 256
 457 1469 220 1432 220 1094 c 258
 220 0 l 257
EndSplineSet
EndChar

StartChar: grave
Encoding: 96 96 282
Width: 652
VWidth: 0
GlyphClass: 4
Flags: HW
PickledData: "(dp1
S'org.robofab.postScriptHintData'
p2
(dp3
s."
AnchorPoint: "top" 304 1052 mark 0
LayerCount: 2
Fore
SplineSet
-6 1586 m 257
 231 1196 l 257
 346 1196 l 257
 194 1586 l 257
 -6 1586 l 257
EndSplineSet
EndChar

StartChar: greater
Encoding: 62 62 283
Width: 1386
VWidth: 0
GlyphClass: 2
Flags: HW
PickledData: "(dp1
S'org.robofab.postScriptHintData'
p2
(dp3
s."
LayerCount: 2
Fore
SplineSet
242 -19 m 257
 1213 488 l 257
 1213 678 l 257
 242 1182 l 257
 242 987 l 257
 1073 580 l 257
 242 169 l 257
 242 -19 l 257
EndSplineSet
EndChar

StartChar: guillemotleft
Encoding: 171 171 284
Width: 1072
VWidth: 0
GlyphClass: 2
Flags: HW
PickledData: "(dp1
S'org.robofab.postScriptHintData'
p2
(dp3
s."
LayerCount: 2
Fore
SplineSet
800 80 m 257
 890 130 l 257
 683 530 l 257
 890 930 l 257
 793 980 l 257
 530 530 l 257
 800 80 l 257
444 80 m 257
 534 130 l 257
 327 530 l 257
 534 930 l 257
 437 980 l 257
 174 530 l 257
 444 80 l 257
EndSplineSet
EndChar

StartChar: guillemotright
Encoding: 187 187 285
Width: 1072
VWidth: 0
GlyphClass: 2
Flags: HW
PickledData: "(dp1
S'org.robofab.postScriptHintData'
p2
(dp3
s."
LayerCount: 2
Fore
SplineSet
301 980 m 257
 204 930 l 257
 411 530 l 257
 204 130 l 257
 294 80 l 257
 564 530 l 257
 301 980 l 257
657 980 m 257
 560 930 l 257
 767 530 l 257
 560 130 l 257
 650 80 l 257
 920 530 l 257
 657 980 l 257
EndSplineSet
EndChar

StartChar: guilsinglleft
Encoding: 8249 8249 286
Width: 768
VWidth: 0
GlyphClass: 2
Flags: HW
PickledData: "(dp1
S'org.robofab.postScriptHintData'
p2
(dp3
s."
LayerCount: 2
Fore
SplineSet
434 80 m 257
 524 130 l 257
 317 530 l 257
 524 930 l 257
 427 980 l 257
 164 530 l 257
 434 80 l 257
EndSplineSet
EndChar

StartChar: guilsinglright
Encoding: 8250 8250 287
Width: 768
VWidth: 0
GlyphClass: 2
Flags: HW
PickledData: "(dp1
S'org.robofab.postScriptHintData'
p2
(dp3
s."
LayerCount: 2
Fore
SplineSet
311 980 m 257
 214 930 l 257
 421 530 l 257
 214 130 l 257
 304 80 l 257
 574 530 l 257
 311 980 l 257
EndSplineSet
EndChar

StartChar: h
Encoding: 104 104 288
Width: 1195
VWidth: 0
GlyphClass: 2
Flags: HW
PickledData: "(dp1
S'org.robofab.postScriptHintData'
p2
(dp3
s."
AnchorPoint: "top" 670 1332 basechar 0
LayerCount: 2
Fore
SplineSet
196 0 m 257
 333 0 l 257
 333 764 l 258
 333 865 422 961 657 961 c 256
 816 961 876 899 876 799 c 258
 876 0 l 257
 1014 0 l 257
 1014 760 l 258
 1014 920 954 1070 660 1070 c 256
 483 1070 385 1014 333 944 c 257
 333 1499 l 257
 196 1499 l 257
 196 0 l 257
EndSplineSet
EndChar

StartChar: hbar
Encoding: 295 295 289
Width: 1206
VWidth: 0
GlyphClass: 2
Flags: HW
PickledData: "(dp1
S'org.robofab.postScriptHintData'
p2
(dp3
s."
LayerCount: 2
Fore
SplineSet
33 1256 m 257
 579 1256 l 257
 579 1357 l 257
 33 1357 l 257
 33 1256 l 257
EndSplineSet
Refer: 288 104 N 1 0 0 1 0 0 2
EndChar

StartChar: hungarumlaut
Encoding: 733 733 291
Width: 1024
VWidth: 0
GlyphClass: 4
Flags: HW
PickledData: "(dp1
S'org.robofab.postScriptHintData'
p2
(dp3
s."
AnchorPoint: "top" 456 1052 mark 0
LayerCount: 2
Fore
SplineSet
219 1215 m 257
 314 1215 l 257
 550 1605 l 257
 371 1605 l 257
 219 1215 l 257
559 1215 m 257
 659 1215 l 257
 945 1605 l 257
 761 1605 l 257
 559 1215 l 257
EndSplineSet
EndChar

StartChar: hyphen
Encoding: 45 45 292
Width: 1058
VWidth: 0
GlyphClass: 4
Flags: HW
PickledData: "(dp1
S'org.robofab.postScriptHintData'
p2
(dp3
s."
AnchorPoint: "mid" 508 566 mark 0
LayerCount: 2
Fore
SplineSet
197 521 m 257
 811 521 l 257
 811 622 l 257
 197 622 l 257
 197 521 l 257
EndSplineSet
EndChar

StartChar: infinity
Encoding: 8734 8734 305
Width: 1411
VWidth: 0
GlyphClass: 2
Flags: HW
PickledData: "(dp1
S'org.robofab.postScriptHintData'
p2
(dp3
s."
LayerCount: 2
Fore
SplineSet
705 948 m 257
 694 959 495 1155 286 1155 c 256
 88 1155 24 1002 24 859 c 256
 24 720 88 564 286 564 c 256
 495 564 694 792 705 805 c 257
 717 792 916 564 1125 564 c 256
 1323 564 1387 720 1387 859 c 256
 1387 1002 1323 1155 1125 1155 c 256
 916 1155 717 959 705 948 c 257
137 859 m 256
 137 1002 205 1069 304 1069 c 256
 403 1069 533 1001 658 874 c 257
 522 730 386 653 288 653 c 256
 197 653 137 720 137 859 c 256
753 874 m 257
 878 1001 1008 1069 1107 1069 c 256
 1206 1069 1274 1002 1274 859 c 256
 1274 720 1214 653 1123 653 c 256
 1025 653 889 730 753 874 c 257
EndSplineSet
EndChar

StartChar: integral
Encoding: 8747 8747 306
Width: 1008
VWidth: 0
GlyphClass: 2
Flags: HW
PickledData: "(dp1
S'org.robofab.postScriptHintData'
p2
(dp3
s."
LayerCount: 2
Fore
SplineSet
296 -450 m 256
 481 -450 579 -386 579 -184 c 258
 579 1198 l 258
 579 1291 605 1367 767 1367 c 256
 775 1367 775 1370 780 1369 c 257
 780 1479 l 257
 751 1482 714 1484 687 1484 c 256
 493 1484 401 1420 401 1179 c 258
 401 -213 l 258
 401 -299 356 -333 233 -333 c 256
 218 -333 208 -335 195 -334 c 257
 195 -444 l 257
 227 -448 266 -450 296 -450 c 256
EndSplineSet
EndChar

StartChar: k
Encoding: 107 107 312
Width: 1105
VWidth: 0
GlyphClass: 2
Flags: HW
PickledData: "(dp1
S'org.robofab.postScriptHintData'
p2
(dp3
s."
AnchorPoint: "top" 669 1052 basechar 0
AnchorPoint: "bot" 603 0 basechar 0
LayerCount: 2
Fore
SplineSet
196 0 m 257
 333 0 l 257
 333 350 l 257
 496 514 l 257
 922 0 l 257
 1091 0 l 257
 586 584 l 257
 1033 1052 l 257
 889 1052 l 257
 333 486 l 257
 333 1500 l 257
 196 1500 l 257
 196 0 l 257
EndSplineSet
EndChar

StartChar: kgreenlandic
Encoding: 312 312 315
Width: 1109
VWidth: 0
GlyphClass: 2
Flags: HW
PickledData: "(dp1
S'org.robofab.postScriptHintData'
p2
(dp3
s."
LayerCount: 2
Fore
SplineSet
195 0 m 257
 332 0 l 257
 332 335 l 257
 510 507 l 257
 930 0 l 257
 1081 0 l 257
 601 570 l 257
 1025 1052 l 257
 887 1052 l 257
 647 792 573 713 332 455 c 257
 332 1052 l 257
 195 1052 l 257
 195 0 l 257
EndSplineSet
EndChar

StartChar: l
Encoding: 108 108 316
Width: 667
VWidth: 0
GlyphClass: 2
Flags: HW
PickledData: "(dp1
S'org.robofab.postScriptHintData'
p2
(dp3
s."
AnchorPoint: "bot" 325 0 basechar 0
AnchorPoint: "top" 281 1502 basechar 0
AnchorPoint: "mid" 200 815 basechar 0
AnchorPoint: "caron.alt" 179 1052 basechar 0
LayerCount: 2
Fore
SplineSet
528 -6 m 258
 546 -6 l 257
 569 126 l 257
 536 126 l 258
 373 126 340 149 340 355 c 258
 340 1499 l 257
 202 1499 l 257
 202 361 l 258
 202 29 300 -6 528 -6 c 258
EndSplineSet
EndChar

StartChar: less
Encoding: 60 60 321
Width: 1386
VWidth: 0
GlyphClass: 2
Flags: HW
PickledData: "(dp1
S'org.robofab.postScriptHintData'
p2
(dp3
s."
LayerCount: 2
Fore
SplineSet
1154 -19 m 257
 1154 177 l 257
 322 583 l 257
 1154 996 l 257
 1154 1182 l 257
 182 677 l 257
 182 487 l 257
 1154 -19 l 257
EndSplineSet
EndChar

StartChar: logicalnot
Encoding: 172 172 323
Width: 768
VWidth: 0
GlyphClass: 2
Flags: HW
PickledData: "(dp1
S'org.robofab.postScriptHintData'
p2
(dp3
s."
LayerCount: 2
Fore
SplineSet
519 397 m 257
 642 397 l 257
 642 653 l 257
 79 653 l 257
 79 537 l 257
 519 537 l 257
 519 397 l 257
EndSplineSet
EndChar

StartChar: lozenge
Encoding: 9674 9674 324
Width: 1104
VWidth: 0
GlyphClass: 2
Flags: HW
PickledData: "(dp1
S'org.robofab.postScriptHintData'
p2
(dp3
s."
LayerCount: 2
Fore
SplineSet
488 0 m 257
 642 0 l 257
 980 708 l 257
 642 1411 l 257
 488 1411 l 257
 124 708 l 257
 488 0 l 257
567 143 m 257
 282 708 l 257
 567 1257 l 257
 827 708 l 257
 567 143 l 257
EndSplineSet
EndChar

StartChar: lslash
Encoding: 322 322 325
Width: 708
VWidth: 0
GlyphClass: 2
Flags: HW
PickledData: "(dp1
S'org.robofab.postScriptHintData'
p2
(dp3
s."
LayerCount: 2
Fore
SplineSet
64 658 m 257
 523 940 l 257
 523 1062 l 257
 64 780 l 257
 64 658 l 257
EndSplineSet
Refer: 316 108 N 1 0 0 1 0 0 2
EndChar

StartChar: m
Encoding: 109 109 326
Width: 1829
VWidth: 0
GlyphClass: 2
Flags: HW
PickledData: "(dp1
S'org.robofab.postScriptHintData'
p2
(dp3
s."
AnchorPoint: "top" 953 1052 basechar 0
LayerCount: 2
Fore
SplineSet
197 0 m 257
 334 0 l 257
 334 765 l 258
 334 865 388 959 635 959 c 256
 783 959 855 893 855 792 c 258
 855 0 l 257
 993 0 l 257
 993 758 l 258
 993 762 993 766 993 770 c 0
 993 871 1055 959 1294 959 c 256
 1440 959 1507 893 1507 792 c 258
 1507 0 l 257
 1644 0 l 257
 1644 756 l 258
 1644 916 1601 1070 1294 1070 c 256
 1133 1070 1014 1034 951 927 c 257
 904 1005 825 1070 635 1070 c 256
 487 1070 395 1040 334 944 c 257
 334 1052 l 257
 197 1052 l 257
 197 0 l 257
EndSplineSet
EndChar

StartChar: macron
Encoding: 175 175 327
Width: 514
VWidth: 0
GlyphClass: 4
Flags: HW
PickledData: "(dp1
S'org.robofab.postScriptHintData'
p2
(dp3
s."
AnchorPoint: "top" 257 1052 mark 0
AnchorPoint: "mid" 256 1325 mark 0
LayerCount: 2
Fore
SplineSet
15 1265 m 257
 499 1265 l 257
 499 1376 l 257
 15 1376 l 257
 15 1265 l 257
EndSplineSet
EndChar

StartChar: minus
Encoding: 8722 8722 330
Width: 982
VWidth: 0
GlyphClass: 2
Flags: HW
PickledData: "(dp1
S'org.robofab.postScriptHintData'
p2
(dp3
s."
LayerCount: 2
Fore
SplineSet
154 439 m 257
 832 439 l 257
 832 603 l 257
 154 603 l 257
 154 439 l 257
EndSplineSet
EndChar

StartChar: uni03BC
Encoding: 956 956 331
Width: 1211
VWidth: 0
GlyphClass: 2
Flags: HW
PickledData: "(dp1
S'org.robofab.postScriptHintData'
p2
(dp3
s."
LayerCount: 2
Fore
SplineSet
868 1052 m 257
 868 304 l 258
 868 222 795 96 560 96 c 256
 401 96 327 177 327 278 c 258
 327 1052 l 257
 190 1052 l 257
 190 -471 l 257
 339 -471 l 257
 339 10 l 257
 383 -11 446 -24 531 -24 c 256
 696 -24 804 36 868 132 c 257
 896 0 l 257
 1005 0 l 257
 1005 1052 l 257
 868 1052 l 257
EndSplineSet
EndChar

StartChar: multiply
Encoding: 215 215 332
Width: 942
VWidth: 0
GlyphClass: 2
Flags: HW
PickledData: "(dp1
S'org.robofab.postScriptHintData'
p2
(dp3
s."
LayerCount: 2
Fore
SplineSet
223 216 m 257
 471 458 l 257
 719 216 l 257
 828 344 l 257
 592 576 l 257
 828 806 l 257
 719 937 l 257
 471 694 l 257
 223 937 l 257
 114 806 l 257
 350 576 l 257
 114 344 l 257
 223 216 l 257
EndSplineSet
EndChar

StartChar: n
Encoding: 110 110 333
Width: 1195
VWidth: 0
GlyphClass: 2
Flags: HW
PickledData: "(dp1
S'org.robofab.postScriptHintData'
p2
(dp3
s."
AnchorPoint: "top" 620 1052 basechar 0
AnchorPoint: "bot" 582 0 basechar 0
LayerCount: 2
Fore
SplineSet
197 0 m 257
 335 0 l 257
 335 767 l 258
 335 867 430 961 658 961 c 256
 823 961 876 897 876 797 c 258
 876 0 l 257
 1014 0 l 257
 1014 790 l 258
 1014 950 934 1069 658 1069 c 256
 506 1069 407 1035 335 944 c 257
 335 1052 l 257
 197 1052 l 257
 197 0 l 257
EndSplineSet
EndChar

StartChar: nine
Encoding: 57 57 338
Width: 1148
VWidth: 0
GlyphClass: 2
Flags: HW
PickledData: "(dp1
S'org.robofab.postScriptHintData'
p2
(dp3
s."
LayerCount: 2
Fore
SplineSet
586 1448 m 256
 275 1448 133 1315 133 1024 c 256
 133 736 285 606 580 606 c 256
 744 606 810 659 854 713 c 257
 810 707 l 257
 387 0 l 257
 548 0 l 257
 880 572 l 258
 981 746 1025 887 1025 1024 c 256
 1025 1315 887 1448 586 1448 c 256
586 1328 m 256
 816 1328 892 1232 892 1024 c 256
 892 815 796 720 580 720 c 256
 368 720 268 817 268 1024 c 256
 268 1232 348 1328 586 1328 c 256
EndSplineSet
EndChar

StartChar: notequal
Encoding: 8800 8800 340
Width: 677
VWidth: 0
GlyphClass: 2
Flags: HW
PickledData: "(dp1
S'org.robofab.postScriptHintData'
p2
(dp3
s."
LayerCount: 2
Fore
SplineSet
129 238 m 257
 261 238 l 257
 600 1241 l 257
 475 1241 l 257
 129 238 l 257
EndSplineSet
Refer: 254 61 N 1 0 0 1 -386 0 2
EndChar

StartChar: numbersign
Encoding: 35 35 342
Width: 1231
VWidth: 0
GlyphClass: 2
Flags: HW
PickledData: "(dp1
S'org.robofab.postScriptHintData'
p2
(dp3
s."
LayerCount: 2
Fore
SplineSet
187 0 m 257
 308 0 l 257
 393 473 l 257
 723 473 l 257
 635 0 l 257
 756 0 l 257
 841 473 l 257
 1132 473 l 257
 1132 580 l 257
 860 580 l 257
 921 918 l 257
 1156 918 l 257
 1156 1025 l 257
 939 1025 l 257
 1012 1427 l 257
 899 1427 l 257
 825 1025 l 257
 492 1025 l 257
 564 1427 l 257
 451 1427 l 257
 377 1025 l 257
 99 1025 l 257
 99 918 l 257
 356 918 l 257
 295 580 l 257
 75 580 l 257
 75 473 l 257
 275 473 l 257
 187 0 l 257
412 580 m 257
 473 918 l 257
 805 918 l 257
 743 580 l 257
 412 580 l 257
EndSplineSet
EndChar

StartChar: o
Encoding: 111 111 343
Width: 1140
VWidth: 0
GlyphClass: 2
Flags: HW
AnchorPoint: "top" 570 1052 basechar 0
AnchorPoint: "ogonek" 610 0 basechar 0
LayerCount: 2
Fore
SplineSet
153 739 m 258
 153 343 l 258
 153 119 272 -21 570 -21 c 256
 868 -21 987 119 987 343 c 258
 987 739 l 258
 987 956 841 1070 570 1070 c 256
 299 1070 153 956 153 739 c 258
850 343 m 258
 850 157 769 94 570 94 c 256
 371 94 290 157 290 343 c 258
 290 739 l 258
 290 894 370 953 570 953 c 256
 770 953 850 894 850 739 c 258
 850 343 l 258
EndSplineSet
EndChar

StartChar: oe
Encoding: 339 339 350
Width: 1706
VWidth: 0
GlyphClass: 2
Flags: HW
PickledData: "(dp1
S'org.robofab.postScriptHintData'
p2
(dp3
s."
LayerCount: 2
Fore
SplineSet
560 -18 m 256
 728 -18 814 41 870 141 c 257
 924 45 1028 -18 1184 -18 c 256
 1474 -18 1533 90 1563 315 c 257
 1443 315 l 257
 1425 124 1373 94 1181 94 c 256
 1014 94 941 176 941 332 c 258
 941 502 l 257
 1564 502 l 257
 1564 766 l 258
 1564 958 1431 1070 1185 1070 c 256
 1031 1070 930 1032 871 934 c 257
 806 1033 702 1070 560 1070 c 256
 305 1070 166 933 166 746 c 258
 166 312 l 258
 166 126 257 -18 560 -18 c 256
560 94 m 256
 399 94 303 149 303 293 c 258
 303 764 l 258
 303 908 406 957 560 957 c 256
 718 957 804 899 804 764 c 258
 804 293 l 258
 804 151 714 94 560 94 c 256
941 620 m 257
 941 760 l 258
 941 901 1006 957 1181 957 c 256
 1347 957 1427 919 1427 786 c 258
 1427 620 l 257
 941 620 l 257
EndSplineSet
EndChar

StartChar: ogonek
Encoding: 731 731 351
Width: 529
VWidth: 0
GlyphClass: 4
Flags: HW
PickledData: "(dp1
S'org.robofab.postScriptHintData'
p2
(dp3
s."
AnchorPoint: "ogonek" 356 0 mark 0
LayerCount: 2
Fore
SplineSet
406 -457 m 257
 398 -386 l 257
 278 -386 233 -332 233 -255 c 256
 233 -152 323 -44 405 11 c 257
 345 11 l 257
 191 -84 146 -205 146 -273 c 256
 146 -362 216 -456 406 -457 c 257
EndSplineSet
EndChar

StartChar: one
Encoding: 49 49 356
Width: 1148
VWidth: 0
GlyphClass: 2
Flags: HW
PickledData: "(dp1
S'org.robofab.postScriptHintData'
p2
(dp3
s."
LayerCount: 2
Fore
SplineSet
177 0 m 257
 1056 0 l 257
 1056 123 l 257
 716 123 l 257
 716 1428 l 257
 576 1428 l 257
 224 1391 l 257
 237 1267 l 257
 572 1299 l 257
 572 123 l 257
 177 123 l 257
 177 0 l 257
EndSplineSet
Substitution2: "supsSuperscriptlookup11 subtable" uni00B9
EndChar

StartChar: onehalf
Encoding: 189 189 357
Width: 1728
VWidth: 0
GlyphClass: 3
Flags: HW
PickledData: "(dp1
S'org.robofab.postScriptHintData'
p2
(dp3
s."
LayerCount: 2
Fore
SplineSet
1145 0 m 257
 1601 0 l 257
 1601 69 l 257
 1261 69 l 257
 1473 279 l 258
 1545 350 1602 415 1602 530 c 256
 1602 639 1559 745 1384 745 c 256
 1195 745 1130 684 1130 540 c 257
 1218 540 l 257
 1218 666 1292 673 1386 673 c 256
 1479 673 1517 623 1518 530 c 256
 1518 452 1504 420 1421 336 c 258
 1145 58 l 257
 1145 0 l 257
184 793 m 257
 766 793 l 257
 766 867 l 257
 544 867 l 257
 544 1522 l 257
 461 1522 l 257
 195 1501 l 257
 204 1421 l 257
 462 1440 l 257
 462 867 l 257
 184 867 l 257
 184 793 l 257
532 0 m 257
 619 0 l 257
 1339 1428 l 257
 1258 1428 l 257
 532 0 l 257
EndSplineSet
Ligature2: "fracDiagonalFractionslookup12 subtable" one slash two
EndChar

StartChar: onequarter
Encoding: 188 188 358
Width: 1815
VWidth: 0
GlyphClass: 3
Flags: HW
PickledData: "(dp1
S'org.robofab.postScriptHintData'
p2
(dp3
s."
LayerCount: 2
Fore
SplineSet
1461 0 m 257
 1547 0 l 257
 1547 205 l 257
 1676 205 l 257
 1676 273 l 257
 1547 273 l 257
 1547 484 l 257
 1461 484 l 257
 1461 273 l 257
 1172 273 l 257
 1421 783 l 257
 1334 783 l 257
 1067 257 l 257
 1067 205 l 257
 1461 205 l 257
 1461 0 l 257
184 793 m 257
 766 793 l 257
 766 867 l 257
 544 867 l 257
 544 1522 l 257
 461 1522 l 257
 195 1501 l 257
 204 1421 l 257
 462 1440 l 257
 462 867 l 257
 184 867 l 257
 184 793 l 257
532 0 m 257
 619 0 l 257
 1339 1428 l 257
 1258 1428 l 257
 532 0 l 257
EndSplineSet
Ligature2: "fracDiagonalFractionslookup12 subtable" one slash four
EndChar

StartChar: uni00B9
Encoding: 185 185 359
Width: 1004
VWidth: 0
GlyphClass: 2
Flags: HW
PickledData: "(dp1
S'org.robofab.postScriptHintData'
p2
(dp3
s."
LayerCount: 2
Fore
SplineSet
203 736 m 257
 784 736 l 257
 784 815 l 257
 564 815 l 257
 564 1538 l 257
 474 1538 l 257
 215 1514 l 257
 224 1433 l 257
 471 1454 l 257
 471 815 l 257
 203 815 l 257
 203 736 l 257
EndSplineSet
EndChar

StartChar: oslash
Encoding: 248 248 362
Width: 1140
VWidth: 0
GlyphClass: 2
Flags: HW
PickledData: "(dp1
S'org.robofab.postScriptHintData'
p2
(dp3
s."
LayerCount: 2
Fore
SplineSet
264 -157 m 257
 922 1183 l 257
 861 1210 l 257
 204 -130 l 257
 264 -157 l 257
EndSplineSet
Refer: 343 111 N 1 0 0 1 0 0 2
EndChar

StartChar: p
Encoding: 112 112 365
Width: 1191
VWidth: 0
GlyphClass: 2
Flags: HW
PickledData: "(dp1
S'org.robofab.postScriptHintData'
p2
(dp3
s."
AnchorPoint: "top" 617 1052 basechar 0
LayerCount: 2
Fore
SplineSet
197 -407 m 257
 334 -407 l 257
 334 44 l 257
 385 16 472 -21 611 -21 c 256
 871 -21 1028 124 1028 355 c 258
 1028 716 l 258
 1028 919 908 1070 631 1070 c 256
 507 1070 386 1014 339 966 c 257
 320 1052 l 257
 197 1052 l 257
 197 -407 l 257
606 96 m 256
 495 96 402 120 334 159 c 257
 334 814 l 257
 343 837 451 953 612 953 c 256
 764 953 891 876 891 737 c 258
 891 326 l 258
 891 184 768 96 606 96 c 256
EndSplineSet
EndChar

StartChar: paragraph
Encoding: 182 182 366
Width: 1267
VWidth: 0
GlyphClass: 2
Flags: HW
PickledData: "(dp1
S'org.robofab.postScriptHintData'
p2
(dp3
s."
LayerCount: 2
Fore
SplineSet
522 -336 m 257
 636 -336 l 257
 636 1340 l 257
 810 1340 l 257
 810 -336 l 257
 924 -336 l 257
 924 1428 l 257
 548 1428 l 258
 354 1428 212 1362 212 1146 c 256
 212 984 364 883 522 877 c 257
 522 -336 l 257
EndSplineSet
EndChar

StartChar: parenleft
Encoding: 40 40 367
Width: 661
VWidth: 0
GlyphClass: 2
Flags: HW
PickledData: "(dp1
S'org.robofab.postScriptHintData'
p2
(dp3
s."
LayerCount: 2
Fore
SplineSet
561 -145 m 257
 561 -34 l 257
 316 -34 287 87 287 255 c 0
 287 306 290 362 290 420 c 258
 290 982 l 258
 290 1041 287 1098 287 1151 c 0
 287 1322 316 1450 561 1450 c 257
 561 1562 l 257
 190 1562 145 1365 145 1149 c 0
 145 1080 150 1010 150 943 c 258
 150 452 l 258
 150 386 145 317 145 250 c 0
 145 42 190 -144 561 -145 c 257
EndSplineSet
EndChar

StartChar: parenright
Encoding: 41 41 368
Width: 661
VWidth: 0
GlyphClass: 2
Flags: HW
PickledData: "(dp1
S'org.robofab.postScriptHintData'
p2
(dp3
s."
LayerCount: 2
Fore
SplineSet
90 -145 m 257
 461 -144 506 53 506 269 c 0
 506 338 501 408 501 475 c 258
 501 966 l 258
 501 1032 506 1101 506 1168 c 0
 506 1375 461 1562 90 1562 c 257
 90 1452 l 257
 335 1452 364 1331 364 1163 c 0
 364 1112 361 1056 361 998 c 258
 361 437 l 258
 361 378 364 319 364 266 c 0
 364 94 335 -33 90 -33 c 257
 90 -145 l 257
EndSplineSet
EndChar

StartChar: partialdiff
Encoding: 8706 8706 369
Width: 1194
VWidth: 0
GlyphClass: 2
Flags: HW
PickledData: "(dp1
S'org.robofab.postScriptHintData'
p2
(dp3
s."
LayerCount: 2
Fore
SplineSet
466 -20 m 256
 793 -20 1025 384 1025 920 c 256
 1025 1338 816 1514 577 1514 c 256
 479 1514 381 1488 270 1431 c 257
 285 1394 l 257
 342 1417 421 1433 493 1433 c 256
 709 1433 888 1292 888 976 c 256
 888 961 888 945 886 929 c 257
 882 929 879 929 875 929 c 0
 428 929 177 563 177 284 c 256
 177 112 273 -20 466 -20 c 256
480 79 m 256
 382 79 341 159 341 256 c 256
 341 474 524 846 882 848 c 257
 864 550 755 79 480 79 c 256
EndSplineSet
EndChar

StartChar: percent
Encoding: 37 37 371
Width: 2008
VWidth: 0
GlyphClass: 2
Flags: HW
PickledData: "(dp1
S'org.robofab.postScriptHintData'
p2
(dp3
s."
LayerCount: 2
Fore
SplineSet
454 794 m 256
 310 794 290 902 290 1047 c 258
 290 1145 l 258
 290 1285 304 1382 454 1382 c 256
 605 1382 620 1285 620 1143 c 258
 620 1047 l 258
 620 902 599 794 454 794 c 256
454 686 m 256
 684 686 755 836 755 1065 c 258
 755 1119 l 257
 753 1352 684 1489 454 1489 c 256
 223 1489 158 1351 158 1118 c 258
 158 1065 l 258
 158 837 224 686 454 686 c 256
1550 89 m 256
 1406 89 1387 197 1387 341 c 258
 1387 440 l 258
 1387 579 1400 676 1550 676 c 256
 1701 676 1717 579 1717 438 c 258
 1717 341 l 258
 1717 197 1695 89 1550 89 c 256
1550 -19 m 256
 1780 -19 1851 131 1851 360 c 258
 1851 414 l 257
 1849 647 1780 784 1550 784 c 256
 1319 784 1254 646 1254 413 c 258
 1254 360 l 258
 1254 132 1320 -19 1550 -19 c 256
652 0 m 257
 792 0 l 257
 1330 1446 l 257
 1195 1446 l 257
 652 0 l 257
EndSplineSet
EndChar

StartChar: period
Encoding: 46 46 372
Width: 624
VWidth: 0
GlyphClass: 2
Flags: HW
PickledData: "(dp1
S'org.robofab.postScriptHintData'
p2
(dp3
s."
LayerCount: 2
Fore
SplineSet
199 0 m 257
 430 0 l 257
 430 217 l 257
 199 217 l 257
 199 0 l 257
EndSplineSet
EndChar

StartChar: periodcentered
Encoding: 183 183 373
Width: 867
VWidth: 0
GlyphClass: 4
Flags: HW
PickledData: "(dp1
S'org.robofab.postScriptHintData'
p2
(dp3
s."
AnchorPoint: "mid" 167 601 mark 0
LayerCount: 2
Fore
SplineSet
528 527 m 257
 707 527 l 257
 707 710 l 257
 528 710 l 257
 528 527 l 257
EndSplineSet
EndChar

StartChar: perthousand
Encoding: 8240 8240 374
Width: 2956
VWidth: 0
GlyphClass: 2
Flags: HW
PickledData: "(dp1
S'org.robofab.postScriptHintData'
p2
(dp3
s."
LayerCount: 2
Fore
SplineSet
554 766 m 256
 410 766 390 874 390 1018 c 258
 390 1117 l 258
 390 1256 404 1353 554 1353 c 256
 705 1353 720 1256 720 1115 c 258
 720 1018 l 258
 720 874 698 766 554 766 c 256
554 658 m 256
 784 658 855 808 855 1037 c 258
 855 1091 l 257
 853 1324 784 1461 554 1461 c 256
 323 1461 258 1323 258 1090 c 258
 258 1037 l 258
 258 809 324 658 554 658 c 256
1650 89 m 256
 1506 89 1487 197 1487 341 c 258
 1487 440 l 258
 1487 579 1500 676 1650 676 c 256
 1801 676 1816 579 1816 438 c 258
 1816 341 l 258
 1816 197 1795 89 1650 89 c 256
1650 -19 m 256
 1880 -19 1950 131 1950 360 c 258
 1950 414 l 257
 1948 647 1880 784 1650 784 c 256
 1419 784 1354 646 1354 413 c 258
 1354 360 l 258
 1354 132 1420 -19 1650 -19 c 256
2444 89 m 256
 2300 89 2281 197 2281 341 c 258
 2281 440 l 258
 2281 579 2294 676 2444 676 c 256
 2595 676 2610 579 2610 438 c 258
 2610 341 l 258
 2610 197 2589 89 2444 89 c 256
2444 -19 m 256
 2674 -19 2744 131 2744 360 c 258
 2744 414 l 257
 2742 647 2674 784 2444 784 c 256
 2213 784 2148 646 2148 413 c 258
 2148 360 l 258
 2148 132 2214 -19 2444 -19 c 256
752 0 m 257
 892 0 l 257
 1430 1446 l 257
 1295 1446 l 257
 752 0 l 257
EndSplineSet
EndChar

StartChar: pi
Encoding: 960 960 375
Width: 1134
VWidth: 0
GlyphClass: 2
Flags: HW
PickledData: "(dp1
S'org.robofab.postScriptHintData'
p2
(dp3
s."
LayerCount: 2
Fore
SplineSet
28 919 m 257
 24 916 23 915 23 914 c 0
 23 914 23 913 24 913 c 0
 37 913 148 961 245 961 c 0
 250 961 254 961 259 961 c 257
 259 0 l 257
 408 0 l 257
 408 960 l 257
 739 960 l 257
 739 249 l 258
 739 30 817 -20 1004 -23 c 257
 1054 105 l 257
 913 138 889 157 889 327 c 258
 889 960 l 257
 1071 960 l 257
 1071 1052 l 257
 207 1052 l 258
 96 1052 29 1002 24 1002 c 0
 23 1002 24 1004 28 1008 c 257
 28 919 l 257
EndSplineSet
EndChar

StartChar: plus
Encoding: 43 43 376
Width: 1059
VWidth: 0
GlyphClass: 2
Flags: HW
PickledData: "(dp1
S'org.robofab.postScriptHintData'
p2
(dp3
s."
LayerCount: 2
Fore
SplineSet
469 156 m 257
 592 156 l 257
 592 511 l 257
 879 511 l 257
 879 618 l 257
 592 618 l 257
 592 968 l 257
 469 968 l 257
 469 618 l 257
 180 618 l 257
 180 511 l 257
 469 511 l 257
 469 156 l 257
EndSplineSet
EndChar

StartChar: plusminus
Encoding: 177 177 377
Width: 1051
VWidth: 0
GlyphClass: 2
Flags: HW
PickledData: "(dp1
S'org.robofab.postScriptHintData'
p2
(dp3
s."
LayerCount: 2
Fore
SplineSet
479 339 m 257
 573 339 l 257
 573 623 l 257
 823 623 l 257
 823 709 l 257
 573 709 l 257
 573 976 l 257
 479 976 l 257
 479 709 l 257
 229 709 l 257
 229 623 l 257
 479 623 l 257
 479 339 l 257
229 0 m 257
 823 0 l 257
 823 93 l 257
 229 93 l 257
 229 0 l 257
EndSplineSet
EndChar

StartChar: product
Encoding: 8719 8719 378
Width: 1802
VWidth: 0
GlyphClass: 2
Flags: HW
PickledData: "(dp1
S'org.robofab.postScriptHintData'
p2
(dp3
s."
LayerCount: 2
Fore
SplineSet
665 319 m 257
 796 319 l 257
 796 652 l 257
 974 652 l 258
 1194 652 1250 760 1250 894 c 258
 1250 908 l 257
 1246 1082 1144 1153 987 1153 c 258
 665 1153 l 257
 665 319 l 257
796 742 m 257
 796 1062 l 257
 991 1062 l 258
 1109 1062 1118 960 1118 901 c 258
 1118 877 l 257
 1117 814 1096 742 982 742 c 258
 796 742 l 257
903 82 m 256
 539 82 274 357 274 722 c 256
 274 1086 539 1361 903 1361 c 256
 1269 1361 1531 1086 1531 722 c 256
 1531 357 1269 82 903 82 c 256
901 -14 m 256
 1317 -14 1637 303 1637 722 c 256
 1637 1139 1317 1456 901 1456 c 256
 488 1456 165 1139 165 722 c 256
 165 303 488 -14 901 -14 c 256
EndSplineSet
EndChar

StartChar: q
Encoding: 113 113 379
Width: 1194
VWidth: 0
GlyphClass: 2
Flags: HW
PickledData: "(dp1
S'org.robofab.postScriptHintData'
p2
(dp3
s."
LayerCount: 2
Fore
SplineSet
860 -407 m 257
 997 -407 l 257
 997 1052 l 257
 818 1052 l 257
 830 957 l 257
 818 1006 676 1070 570 1070 c 256
 285 1070 162 930 162 715 c 258
 162 312 l 258
 162 94 342 -21 595 -21 c 256
 662 -21 795 -2 860 55 c 257
 860 -407 l 257
583 96 m 256
 435 96 300 131 300 270 c 258
 300 743 l 258
 300 886 421 953 588 953 c 256
 780 953 862 877 862 810 c 0
 862 804 861 799 860 793 c 257
 860 190 l 257
 845 160 739 96 583 96 c 256
EndSplineSet
EndChar

StartChar: question
Encoding: 63 63 380
Width: 1083
VWidth: 0
GlyphClass: 2
Flags: HW
PickledData: "(dp1
S'org.robofab.postScriptHintData'
p2
(dp3
s."
LayerCount: 2
Fore
SplineSet
400 431 m 257
 518 431 l 257
 699 651 l 258
 838 820 950 972 950 1142 c 256
 950 1290 863 1448 560 1448 c 256
 272 1448 155 1326 155 1128 c 258
 155 1085 l 257
 288 1085 l 257
 288 1119 l 258
 288 1247 357 1322 560 1322 c 256
 738 1322 808 1256 808 1131 c 256
 808 1016 722 898 646 788 c 258
 400 431 l 257
356 0 m 257
 533 0 l 257
 533 183 l 257
 356 183 l 257
 356 0 l 257
EndSplineSet
EndChar

StartChar: quotedbl
Encoding: 34 34 382
Width: 810
VWidth: 0
GlyphClass: 2
Flags: HW
PickledData: "(dp1
S'org.robofab.postScriptHintData'
p2
(dp3
s."
LayerCount: 2
Fore
SplineSet
186 965 m 257
 294 965 l 257
 339 1500 l 257
 163 1500 l 257
 186 965 l 257
507 965 m 257
 615 965 l 257
 647 1500 l 257
 471 1500 l 257
 507 965 l 257
EndSplineSet
EndChar

StartChar: quotedblbase
Encoding: 8222 8222 383
Width: 1066
VWidth: 0
GlyphClass: 2
Flags: HW
PickledData: "(dp1
S'org.robofab.postScriptHintData'
p2
(dp3
s."
LayerCount: 2
Fore
SplineSet
550 -307 m 257
 605 -255 707 -137 707 48 c 258
 707 207 l 257
 489 207 l 257
 489 0 l 257
 616 0 l 257
 616 -128 529 -211 484 -265 c 257
 550 -307 l 257
190 -307 m 257
 246 -255 348 -137 348 48 c 258
 348 207 l 257
 130 207 l 257
 130 0 l 257
 256 0 l 257
 256 -128 169 -211 125 -265 c 257
 190 -307 l 257
EndSplineSet
EndChar

StartChar: quotedblleft
Encoding: 8220 8220 384
Width: 1104
VWidth: 0
GlyphClass: 2
Flags: HW
PickledData: "(dp1
S'org.robofab.postScriptHintData'
p2
(dp3
s."
LayerCount: 2
Fore
SplineSet
516 1440 m 257
 460 1387 358 1269 358 1084 c 258
 358 925 l 257
 576 925 l 257
 576 1132 l 257
 450 1132 l 257
 450 1261 537 1344 581 1397 c 257
 516 1440 l 257
890 1440 m 257
 834 1387 732 1269 732 1084 c 258
 732 925 l 257
 950 925 l 257
 950 1132 l 257
 823 1132 l 257
 823 1261 910 1344 955 1397 c 257
 890 1440 l 257
EndSplineSet
EndChar

StartChar: quotedblright
Encoding: 8221 8221 385
Width: 1080
VWidth: 0
GlyphClass: 2
Flags: HW
PickledData: "(dp1
S'org.robofab.postScriptHintData'
p2
(dp3
s."
LayerCount: 2
Fore
SplineSet
190 925 m 257
 246 977 348 1095 348 1280 c 258
 348 1439 l 257
 130 1439 l 257
 130 1232 l 257
 256 1232 l 257
 256 1104 169 1021 125 967 c 257
 190 925 l 257
564 925 m 257
 619 977 721 1095 721 1280 c 258
 721 1439 l 257
 503 1439 l 257
 503 1232 l 257
 630 1232 l 257
 630 1104 543 1021 498 967 c 257
 564 925 l 257
EndSplineSet
EndChar

StartChar: quoteleft
Encoding: 8216 8216 386
Width: 706
VWidth: 0
GlyphClass: 2
Flags: HW
PickledData: "(dp1
S'org.robofab.postScriptHintData'
p2
(dp3
s."
LayerCount: 2
Fore
SplineSet
492 1447 m 257
 436 1394 334 1276 334 1091 c 258
 334 932 l 257
 552 932 l 257
 552 1140 l 257
 426 1140 l 257
 426 1268 513 1351 557 1404 c 257
 492 1447 l 257
EndSplineSet
EndChar

StartChar: quoteright
Encoding: 8217 8217 387
Width: 730
VWidth: 0
GlyphClass: 2
Flags: HW
PickledData: "(dp1
S'org.robofab.postScriptHintData'
p2
(dp3
s."
LayerCount: 2
Fore
SplineSet
214 932 m 257
 270 985 372 1102 372 1287 c 258
 372 1446 l 257
 154 1446 l 257
 154 1239 l 257
 280 1239 l 257
 280 1111 193 1028 149 975 c 257
 214 932 l 257
EndSplineSet
EndChar

StartChar: quotesinglbase
Encoding: 8218 8218 388
Width: 706
VWidth: 0
GlyphClass: 2
Flags: HW
PickledData: "(dp1
S'org.robofab.postScriptHintData'
p2
(dp3
s."
LayerCount: 2
Fore
SplineSet
190 -307 m 257
 246 -255 348 -137 348 48 c 258
 348 207 l 257
 130 207 l 257
 130 0 l 257
 256 0 l 257
 256 -128 169 -211 125 -265 c 257
 190 -307 l 257
EndSplineSet
EndChar

StartChar: quotesingle
Encoding: 39 39 389
Width: 972
VWidth: 0
GlyphClass: 2
Flags: HW
PickledData: "(dp1
S'org.robofab.postScriptHintData'
p2
(dp3
s."
LayerCount: 2
Fore
SplineSet
155 965 m 257
 262 965 l 257
 308 1500 l 257
 132 1500 l 257
 155 965 l 257
EndSplineSet
EndChar

StartChar: r
Encoding: 114 114 390
Width: 764
VWidth: 0
GlyphClass: 2
Flags: HW
PickledData: "(dp1
S'org.robofab.postScriptHintData'
p2
(dp3
s."
AnchorPoint: "top" 438 1052 basechar 0
AnchorPoint: "bot" 277 0 basechar 0
LayerCount: 2
Fore
SplineSet
202 0 m 257
 339 0 l 257
 339 723 l 258
 339 727 338 731 338 735 c 0
 338 846 490 947 684 947 c 0
 688 947 691 947 695 947 c 257
 701 1066 l 257
 531 1060 390 1016 339 856 c 257
 339 1052 l 257
 202 1052 l 257
 202 0 l 257
EndSplineSet
EndChar

StartChar: radical
Encoding: 8730 8730 392
Width: 1220
VWidth: 0
GlyphClass: 2
Flags: HW
PickledData: "(dp1
S'org.robofab.postScriptHintData'
p2
(dp3
s."
LayerCount: 2
Fore
SplineSet
158 400 m 257
 277 400 l 257
 459 0 l 257
 594 0 l 257
 1221 1506 l 257
 1120 1506 l 257
 538 117 l 257
 371 511 l 257
 158 511 l 257
 158 400 l 257
EndSplineSet
EndChar

StartChar: registered
Encoding: 174 174 396
Width: 1789
VWidth: 0
GlyphClass: 2
Flags: HW
PickledData: "(dp1
S'org.robofab.postScriptHintData'
p2
(dp3
s."
LayerCount: 2
Fore
SplineSet
598 319 m 257
 729 319 l 257
 729 652 l 257
 988 652 l 257
 1168 319 l 257
 1296 319 l 257
 1112 666 l 257
 1204 691 1264 760 1264 894 c 258
 1264 908 l 257
 1260 1082 1158 1153 1001 1153 c 258
 598 1153 l 257
 598 319 l 257
729 742 m 257
 729 1062 l 257
 1005 1062 l 258
 1123 1062 1132 960 1132 901 c 258
 1132 877 l 257
 1131 814 1110 742 996 742 c 258
 729 742 l 257
896 82 m 256
 532 82 267 357 267 722 c 256
 267 1086 532 1361 896 1361 c 256
 1262 1361 1524 1086 1524 722 c 256
 1524 357 1262 82 896 82 c 256
894 -14 m 256
 1310 -14 1630 303 1630 722 c 256
 1630 1139 1310 1456 894 1456 c 256
 481 1456 158 1139 158 722 c 256
 158 303 481 -14 894 -14 c 256
EndSplineSet
EndChar

StartChar: ring
Encoding: 730 730 397
Width: 464
VWidth: 0
GlyphClass: 4
Flags: HW
PickledData: "(dp1
S'org.robofab.postScriptHintData'
p2
(dp3
s."
AnchorPoint: "top" 231 1052 mark 0
AnchorPoint: "top" 231 1380 basechar 0
LayerCount: 2
Fore
SplineSet
232 1192 m 256
 182 1192 128 1218 128 1300 c 256
 128 1382 183 1406 233 1406 c 256
 285 1406 336 1379 336 1298 c 256
 336 1217 283 1192 232 1192 c 256
232 1142 m 256
 306 1142 404 1184 404 1299 c 256
 404 1414 307 1457 232 1457 c 256
 158 1457 60 1414 60 1299 c 256
 60 1184 158 1142 232 1142 c 256
EndSplineSet
EndChar

StartChar: s
Encoding: 115 115 399
Width: 929
VWidth: 0
GlyphClass: 2
Flags: HW
PickledData: "(dp1
S'org.robofab.postScriptHintData'
p2
(dp3
sS'com.typemytype.robofont.layerData'
p4
(dp5
s."
AnchorPoint: "top" 507 1052 basechar 0
AnchorPoint: "bot" 451 0 basechar 0
LayerCount: 2
Fore
SplineSet
514 1070 m 0
 247 1070 153 969 153 804 c 0
 153 642 206 589 356 536 c 258
 577 457 l 258
 697 414 696 365 696 265 c 256
 696 146 637 94 471 94 c 256
 304 94 228 133 170 165 c 257
 130 58 l 257
 195 20 285 -21 471 -21 c 256
 764 -21 825 123 825 271 c 256
 825 431 817 508 634 573 c 258
 390 659 l 257
 303 692 290 718 290 807 c 256
 290 922 363 955 518 955 c 0
 627 955 721 932 767 910 c 257
 805 1013 l 257
 756 1037 668 1070 514 1070 c 0
EndSplineSet
EndChar

StartChar: section
Encoding: 167 167 407
Width: 952
VWidth: 0
GlyphClass: 2
Flags: HW
PickledData: "(dp1
S'org.robofab.postScriptHintData'
p2
(dp3
s."
LayerCount: 2
Fore
SplineSet
156 35 m 257
 179 26 316 -22 534 -22 c 256
 801 -22 881 121 881 259 c 256
 881 355 841 449 799 487 c 257
 821 575 845 658 845 731 c 256
 845 831 800 914 642 968 c 257
 388 1051 l 257
 302 1081 289 1103 289 1171 c 256
 289 1303 389 1348 519 1348 c 256
 613 1348 722 1325 822 1295 c 257
 844 1417 l 257
 746 1442 634 1461 528 1461 c 256
 328 1461 152 1393 152 1170 c 256
 152 1093 165 1037 212 996 c 257
 185 921 171 856 171 801 c 256
 171 682 232 605 348 565 c 258
 646 462 l 258
 762 422 764 377 764 278 c 256
 764 175 726 90 511 90 c 256
 325 90 205 146 175 155 c 257
 156 35 l 257
727 724 m 256
 727 669 705 608 688 561 c 257
 362 680 l 258
 312 698 292 747 292 807 c 256
 292 852 303 903 322 950 c 257
 631 852 l 258
 705 829 727 779 727 724 c 256
EndSplineSet
EndChar

StartChar: seven
Encoding: 55 55 409
Width: 1148
VWidth: 0
GlyphClass: 2
Flags: HW
PickledData: "(dp1
S'org.robofab.postScriptHintData'
p2
(dp3
s."
LayerCount: 2
Fore
SplineSet
378 0 m 257
 527 0 l 257
 979 1300 l 257
 979 1428 l 257
 168 1428 l 257
 168 1319 l 257
 852 1319 l 257
 378 0 l 257
EndSplineSet
EndChar

StartChar: six
Encoding: 54 54 410
Width: 1148
VWidth: 0
GlyphClass: 2
Flags: HW
PickledData: "(dp1
S'org.robofab.postScriptHintData'
p2
(dp3
s."
LayerCount: 2
Fore
SplineSet
584 -20 m 256
 895 -20 1037 113 1037 404 c 256
 1037 692 885 822 590 822 c 256
 426 822 360 769 316 715 c 257
 360 721 l 257
 783 1428 l 257
 622 1428 l 257
 290 856 l 258
 189 682 145 541 145 404 c 256
 145 113 283 -20 584 -20 c 256
584 100 m 256
 354 100 278 196 278 404 c 256
 278 613 374 708 590 708 c 256
 802 708 902 611 902 404 c 256
 902 196 822 100 584 100 c 256
EndSplineSet
EndChar

StartChar: slash
Encoding: 47 47 411
Width: 614
VWidth: 0
GlyphClass: 2
Flags: HW
PickledData: "(dp1
S'org.robofab.postScriptHintData'
p2
(dp3
s."
LayerCount: 2
Fore
SplineSet
39 0 m 257
 192 0 l 257
 576 1500 l 257
 429 1500 l 257
 39 0 l 257
EndSplineSet
EndChar

StartChar: uni00AD
Encoding: 173 173 413
Width: 1058
VWidth: 0
GlyphClass: 4
Flags: HW
AnchorPoint: "mid" 508 566 mark 0
LayerCount: 2
Fore
SplineSet
197 521 m 257
 811 521 l 257
 811 622 l 257
 197 622 l 257
 197 521 l 257
EndSplineSet
EndChar

StartChar: sterling
Encoding: 163 163 415
Width: 1266
VWidth: 0
GlyphClass: 2
Flags: HW
PickledData: "(dp1
S'org.robofab.postScriptHintData'
p2
(dp3
s."
LayerCount: 2
Fore
SplineSet
294 0 m 257
 983 0 l 257
 983 124 l 257
 430 124 l 257
 492 696 l 257
 993 696 l 257
 993 807 l 257
 506 807 l 257
 543 1140 l 257
 566 1332 682 1355 755 1355 c 256
 874 1355 1003 1288 1001 1286 c 257
 1045 1388 l 257
 890 1454 797 1465 734 1465 c 256
 558 1465 432 1304 413 1163 c 257
 375 807 l 257
 185 807 l 257
 185 696 l 257
 363 696 l 257
 294 0 l 257
EndSplineSet
EndChar

StartChar: summation
Encoding: 8721 8721 416
Width: 1079
VWidth: 0
GlyphClass: 2
Flags: HW
PickledData: "(dp1
S'org.robofab.postScriptHintData'
p2
(dp3
s."
LayerCount: 2
Fore
SplineSet
1072 0 m 257
 1072 120 l 257
 240 120 l 257
 701 750 l 257
 701 801 l 257
 226 1310 l 257
 1072 1310 l 257
 1072 1428 l 257
 102 1428 l 257
 102 1331 l 257
 598 762 l 257
 102 107 l 257
 102 0 l 257
 1072 0 l 257
EndSplineSet
EndChar

StartChar: t
Encoding: 116 116 417
Width: 815
VWidth: 0
GlyphClass: 2
Flags: HW
PickledData: "(dp1
S'org.robofab.postScriptHintData'
p2
(dp3
s."
AnchorPoint: "bot" 442 37 basechar 0
AnchorPoint: "top" 475 1203 basechar 0
AnchorPoint: "mid" 378 583 basechar 0
AnchorPoint: "caron.alt" 156 1052 basechar 0
LayerCount: 2
Fore
SplineSet
693 -6 m 258
 712 -6 l 257
 726 104 l 257
 710 104 l 258
 501 104 417 144 417 288 c 258
 417 940 l 257
 689 940 l 257
 689 1052 l 257
 417 1052 l 257
 417 1369 l 257
 307 1369 l 257
 286 1052 l 257
 98 1052 l 257
 98 940 l 257
 279 940 l 257
 279 280 l 258
 279 73 424 -6 693 -6 c 258
EndSplineSet
EndChar

StartChar: thorn
Encoding: 254 254 422
Width: 1183
VWidth: 0
GlyphClass: 2
Flags: HW
PickledData: "(dp1
S'org.robofab.postScriptHintData'
p2
(dp3
s."
LayerCount: 2
Fore
SplineSet
188 -407 m 257
 325 -407 l 257
 325 44 l 257
 375 16 463 -24 602 -24 c 256
 862 -24 1022 124 1022 355 c 258
 1022 716 l 258
 1022 919 899 1065 622 1065 c 256
 502 1065 384 1020 325 969 c 257
 325 1500 l 257
 192 1500 l 257
 188 -407 l 257
596 88 m 256
 485 88 393 120 325 159 c 257
 325 814 l 257
 333 837 442 951 602 951 c 256
 755 951 885 873 885 734 c 258
 885 326 l 258
 885 184 759 88 596 88 c 256
EndSplineSet
EndChar

StartChar: three
Encoding: 51 51 423
Width: 1148
VWidth: 0
GlyphClass: 2
Flags: HW
PickledData: "(dp1
S'org.robofab.postScriptHintData'
p2
(dp3
s."
LayerCount: 2
Fore
SplineSet
618 -20 m 256
 881 -20 1019 112 1019 381 c 256
 1019 661 925 732 751 761 c 257
 934 785 980 886 980 1085 c 256
 980 1379 810 1451 603 1451 c 256
 358 1451 162 1430 163 1020 c 257
 303 1020 l 257
 304 1321 396 1323 594 1323 c 2
 602 1323 l 258
 807 1323 841 1235 841 1089 c 256
 841 1075 841 1061 841 1048 c 0
 841 894 828 818 504 818 c 257
 504 699 l 257
 839 699 878 639 878 375 c 256
 878 202 817 104 618 104 c 256
 395 104 304 121 291 428 c 257
 151 428 l 257
 180 60 276 -20 618 -20 c 256
EndSplineSet
Substitution2: "supsSuperscriptlookup11 subtable" uni00B3
EndChar

StartChar: threequarters
Encoding: 190 190 424
Width: 1546
VWidth: 0
GlyphClass: 3
Flags: HW
PickledData: "(dp1
S'org.robofab.postScriptHintData'
p2
(dp3
s."
LayerCount: 2
Fore
SplineSet
474 783 m 256
 616 783 747 848 747 987 c 256
 747 1141 661 1170 583 1182 c 257
 660 1191 720 1227 720 1344 c 256
 720 1483 590 1526 474 1526 c 256
 311 1526 208 1509 201 1311 c 257
 280 1311 l 257
 289 1445 355 1457 474 1457 c 256
 572 1457 620 1420 620 1347 c 256
 620 1256 608 1216 413 1216 c 257
 413 1150 l 257
 611 1150 655 1116 655 983 c 256
 655 892 585 853 474 853 c 256
 342 853 291 883 276 1027 c 257
 192 1027 l 257
 218 848 279 783 474 783 c 256
1461 0 m 257
 1547 0 l 257
 1547 205 l 257
 1676 205 l 257
 1676 273 l 257
 1547 273 l 257
 1547 484 l 257
 1461 484 l 257
 1461 273 l 257
 1172 273 l 257
 1421 783 l 257
 1334 783 l 257
 1067 257 l 257
 1067 205 l 257
 1461 205 l 257
 1461 0 l 257
532 0 m 257
 619 0 l 257
 1339 1428 l 257
 1258 1428 l 257
 532 0 l 257
EndSplineSet
Ligature2: "fracDiagonalFractionslookup12 subtable" three slash four
EndChar

StartChar: uni00B3
Encoding: 179 179 425
Width: 1124
VWidth: 0
GlyphClass: 2
Flags: HW
PickledData: "(dp1
S'org.robofab.postScriptHintData'
p2
(dp3
s."
LayerCount: 2
Fore
SplineSet
547 745 m 256
 707 745 854 818 854 975 c 256
 854 1148 757 1181 669 1194 c 257
 756 1205 824 1245 824 1377 c 256
 824 1534 677 1582 547 1582 c 256
 363 1582 247 1563 239 1340 c 257
 328 1340 l 257
 338 1491 412 1504 547 1504 c 256
 657 1504 711 1463 711 1380 c 256
 711 1278 698 1233 478 1233 c 257
 478 1158 l 257
 701 1158 751 1120 751 970 c 256
 751 868 672 824 547 824 c 256
 398 824 340 857 323 1020 c 257
 229 1020 l 257
 258 818 327 745 547 745 c 256
EndSplineSet
EndChar

StartChar: tilde
Encoding: 732 732 426
Width: 364
VWidth: 0
GlyphClass: 4
Flags: HW
PickledData: "(dp1
S'org.robofab.postScriptHintData'
p2
(dp3
s."
AnchorPoint: "top" 178 1052 mark 0
LayerCount: 2
Fore
SplineSet
292 1420 m 256
 160 1420 126 1310 55 1310 c 0
 14 1310 -13 1349 -13 1408 c 257
 -97 1408 l 257
 -97 1256 -39 1212 71 1212 c 256
 198 1212 245 1310 296 1322 c 256
 301 1323 305 1324 309 1324 c 0
 347 1324 375 1282 375 1225 c 257
 459 1225 l 257
 459 1362 402 1420 292 1420 c 256
EndSplineSet
EndChar

StartChar: trademark
Encoding: 8482 8482 427
Width: 1843
VWidth: 0
GlyphClass: 2
Flags: HW
PickledData: "(dp1
S'org.robofab.postScriptHintData'
p2
(dp3
s."
LayerCount: 2
Fore
SplineSet
857 766 m 257
 958 766 l 257
 958 1383 l 257
 1149 931 l 257
 1310 931 l 257
 1494 1383 l 257
 1494 766 l 257
 1597 766 l 257
 1597 1446 l 257
 1413 1446 l 257
 1227 991 l 257
 1043 1446 l 257
 857 1446 l 257
 857 766 l 257
363 766 m 257
 462 766 l 257
 462 1350 l 257
 692 1350 l 257
 692 1446 l 257
 133 1446 l 257
 133 1350 l 257
 363 1350 l 257
 363 766 l 257
EndSplineSet
EndChar

StartChar: two
Encoding: 50 50 428
Width: 1148
VWidth: 0
GlyphClass: 2
Flags: HW
PickledData: "(dp1
S'org.robofab.postScriptHintData'
p2
(dp3
s."
LayerCount: 2
Fore
SplineSet
181 0 m 257
 1018 0 l 257
 1018 116 l 257
 337 116 l 257
 779 603 l 258
 906 742 1023 829 1023 1058 c 256
 1023 1275 936 1451 582 1451 c 256
 272 1451 119 1345 119 1043 c 257
 256 1043 l 257
 256 1267 346 1323 582 1323 c 256
 809 1323 886 1244 886 1056 c 256
 886 890 814 837 655 660 c 258
 173 124 l 257
 181 0 l 257
EndSplineSet
Substitution2: "supsSuperscriptlookup11 subtable" uni00B2
EndChar

StartChar: uni00B2
Encoding: 178 178 429
Width: 927
VWidth: 0
GlyphClass: 2
Flags: HW
PickledData: "(dp1
S'org.robofab.postScriptHintData'
p2
(dp3
s."
LayerCount: 2
Fore
SplineSet
231 762 m 257
 735 762 l 257
 735 838 l 257
 359 838 l 257
 593 1070 l 258
 673 1149 736 1220 736 1348 c 256
 736 1468 688 1585 495 1585 c 256
 286 1585 214 1518 214 1359 c 257
 312 1359 l 257
 312 1498 393 1505 497 1505 c 256
 600 1505 642 1450 643 1348 c 256
 643 1261 627 1226 536 1133 c 258
 231 826 l 257
 231 762 l 257
EndSplineSet
EndChar

StartChar: u
Encoding: 117 117 430
Width: 1194
VWidth: 0
GlyphClass: 2
Flags: HW
PickledData: "(dp1
S'org.robofab.postScriptHintData'
p2
(dp3
s."
AnchorPoint: "top" 609 1052 basechar 0
AnchorPoint: "ogonek" 949 0 basechar 0
LayerCount: 2
Fore
SplineSet
997 1052 m 257
 859 1052 l 257
 859 277 l 258
 859 177 764 88 536 88 c 256
 371 88 318 161 318 261 c 258
 318 1052 l 257
 180 1052 l 257
 180 268 l 258
 180 108 260 -20 536 -20 c 256
 698 -20 797 29 859 120 c 257
 879 12 l 257
 997 12 l 257
 997 1052 l 257
EndSplineSet
EndChar

StartChar: underscore
Encoding: 95 95 441
Width: 944
VWidth: 0
GlyphClass: 2
Flags: HW
PickledData: "(dp1
S'org.robofab.postScriptHintData'
p2
(dp3
s."
LayerCount: 2
Fore
SplineSet
18 -147 m 257
 929 -147 l 257
 929 -12 l 257
 18 -12 l 257
 18 -147 l 257
EndSplineSet
EndChar

StartChar: uni0307
Encoding: 775 775 457
Width: 299
VWidth: 0
GlyphClass: 4
Flags: HW
PickledData: "(dp1
S'org.robofab.postScriptHintData'
p2
(dp3
s."
AnchorPoint: "top" 173 1052 mark 0
LayerCount: 2
Fore
SplineSet
66 1327 m 257
 259 1327 l 257
 259 1535 l 257
 66 1535 l 257
 66 1327 l 257
EndSplineSet
EndChar

StartChar: uni030F
Encoding: 783 783 458
Width: 1024
VWidth: 0
GlyphClass: 4
Flags: HW
PickledData: "(dp1
S'org.robofab.postScriptHintData'
p2
(dp3
s."
AnchorPoint: "top" 628 1052 mark 0
LayerCount: 2
Fore
SplineSet
534 1605 m 257
 770 1215 l 257
 865 1215 l 257
 713 1605 l 257
 534 1605 l 257
139 1605 m 257
 425 1215 l 257
 525 1215 l 257
 323 1605 l 257
 139 1605 l 257
EndSplineSet
EndChar

StartChar: uni0311
Encoding: 785 785 459
Width: 474
VWidth: 0
GlyphClass: 4
Flags: HW
PickledData: "(dp1
S'org.robofab.postScriptHintData'
p2
(dp3
s."
AnchorPoint: "top" 247 1052 mark 0
LayerCount: 2
Fore
SplineSet
28 1246 m 257
 143 1246 l 257
 143 1297 189 1330 236 1330 c 256
 282 1330 328 1297 328 1246 c 257
 444 1246 l 257
 444 1310 381 1430 236 1430 c 256
 90 1430 28 1310 28 1246 c 257
EndSplineSet
EndChar

StartChar: uni0358
Encoding: 856 856 462
Width: 600
VWidth: 0
GlyphClass: 4
Flags: HW
PickledData: "(dp1
S'org.robofab.postScriptHintData'
p2
(dp3
s."
AnchorPoint: "top" 306 1052 mark 0
LayerCount: 2
Fore
SplineSet
199 1279 m 257
 392 1279 l 257
 392 1487 l 257
 199 1487 l 257
 199 1279 l 257
EndSplineSet
EndChar

StartChar: v
Encoding: 118 118 467
Width: 1064
VWidth: 0
GlyphClass: 2
Flags: HW
PickledData: "(dp1
S'org.robofab.postScriptHintData'
p2
(dp3
s."
LayerCount: 2
Fore
SplineSet
490 0 m 257
 621 0 l 257
 1002 1052 l 257
 862 1052 l 257
 558 160 l 257
 201 1052 l 257
 62 1052 l 257
 490 0 l 257
EndSplineSet
EndChar

StartChar: w
Encoding: 119 119 468
Width: 1567
VWidth: 0
GlyphClass: 2
Flags: HW
PickledData: "(dp1
S'org.robofab.postScriptHintData'
p2
(dp3
s."
AnchorPoint: "top" 786 1052 basechar 0
LayerCount: 2
Fore
SplineSet
352 0 m 257
 482 0 l 257
 778 907 l 257
 1080 0 l 257
 1200 0 l 257
 1525 1052 l 257
 1398 1052 l 257
 1142 188 l 257
 856 1052 l 257
 699 1052 l 257
 426 182 l 257
 165 1052 l 257
 42 1052 l 257
 352 0 l 257
EndSplineSet
EndChar

StartChar: x
Encoding: 120 120 473
Width: 1019
VWidth: 0
GlyphClass: 2
Flags: HW
PickledData: "(dp1
S'org.robofab.postScriptHintData'
p2
(dp3
s."
LayerCount: 2
Fore
SplineSet
70 0 m 257
 196 0 l 257
 514 442 l 257
 831 0 l 257
 962 0 l 257
 580 534 l 257
 955 1052 l 257
 831 1052 l 257
 519 623 l 257
 211 1052 l 257
 79 1052 l 257
 451 529 l 257
 70 0 l 257
EndSplineSet
EndChar

StartChar: y
Encoding: 121 121 474
Width: 1117
VWidth: 0
GlyphClass: 2
Flags: HW
PickledData: "(dp1
S'org.robofab.postScriptHintData'
p2
(dp3
s."
AnchorPoint: "top" 589 1052 basechar 0
LayerCount: 2
Fore
SplineSet
215 -371 m 257
 231 -372 246 -372 261 -372 c 0
 522 -372 615 -223 684 -12 c 257
 1046 1052 l 257
 904 1052 l 257
 604 134 l 257
 253 1052 l 257
 92 1052 l 257
 548 -15 l 257
 506 -173 383 -259 254 -259 c 0
 245 -259 236 -259 227 -258 c 257
 215 -371 l 257
EndSplineSet
EndChar

StartChar: yen
Encoding: 165 165 478
Width: 1326
VWidth: 0
GlyphClass: 2
Flags: HW
PickledData: "(dp1
S'org.robofab.postScriptHintData'
p2
(dp3
s."
LayerCount: 2
Fore
SplineSet
1073 529 m 257
 1073 636 l 257
 233 636 l 257
 233 529 l 257
 1073 529 l 257
1073 251 m 257
 1073 357 l 257
 233 357 l 257
 233 251 l 257
 1073 251 l 257
EndSplineSet
Refer: 157 89 N 1 0 0 1 0 0 2
EndChar

StartChar: z
Encoding: 122 122 482
Width: 925
VWidth: 0
GlyphClass: 2
Flags: HW
PickledData: "(dp1
S'org.robofab.postScriptHintData'
p2
(dp3
s."
AnchorPoint: "top" 499 1052 basechar 0
AnchorPoint: "bot" 535 0 basechar 0
LayerCount: 2
Fore
SplineSet
145 0 m 257
 832 0 l 257
 832 97 l 257
 285 97 l 257
 824 950 l 257
 824 1052 l 257
 172 1052 l 257
 172 946 l 257
 677 946 l 257
 145 101 l 257
 145 0 l 257
EndSplineSet
EndChar

StartChar: zero
Encoding: 48 48 486
Width: 1148
VWidth: 0
GlyphClass: 2
Flags: HW
PickledData: "(dp1
S'org.robofab.postScriptHintData'
p2
(dp3
s."
LayerCount: 2
Fore
SplineSet
569 100 m 256
 327 100 249 243 249 690 c 258
 249 722 l 258
 249 1182 327 1329 569 1329 c 256
 813 1329 891 1182 891 722 c 258
 891 690 l 258
 891 243 813 100 569 100 c 256
569 -20 m 256
 922 -20 1039 153 1042 688 c 257
 1042 1263 927 1448 569 1448 c 256
 225 1448 110 1269 106 715 c 257
 106 159 219 -20 569 -20 c 256
EndSplineSet
EndChar

